<svg data-v-423bf9ae="" xmlns="http://www.w3.org/2000/svg" viewBox="0 0 288 107" class="iconLeftSlogan"><!----><!----><!----><g data-v-423bf9ae="" id="1bcbe57d-c795-4f65-89dd-e80be1fe87ad" fill="#000000" transform="matrix(3.7128713221868317,0,0,3.7128713221868317,104.89252905208289,-8.68811881365746)"><path d="M9.50 4.90L9.50 4.90L9.50 4.90Q9.58 5.02 9.65 5.14L9.65 5.14L9.65 5.14Q9.71 5.26 9.74 5.42L9.74 5.42L9.74 5.42Q9.78 5.58 9.79 5.78L9.79 5.78L9.79 5.78Q9.81 5.98 9.80 6.25L9.80 6.25L9.80 6.25Q9.78 7.13 9.57 8.06L9.57 8.06L9.57 8.06Q9.37 8.99 9.00 9.88L9.00 9.88L9.00 9.88Q8.62 10.77 8.08 11.58L8.08 11.58L8.08 11.58Q7.54 12.40 6.84 13.07L6.84 13.07L6.84 13.07Q6.15 13.73 5.29 14.21L5.29 14.21L5.29 14.21Q4.44 14.68 3.45 14.90L3.45 14.90L3.45 14.90Q3.12 14.69 2.88 14.50L2.88 14.50L2.88 14.50Q2.65 14.31 2.47 14.15L2.47 14.15L2.47 14.15Q2.30 13.99 2.20 13.87L2.20 13.87L2.20 13.87Q2.09 13.75 2.04 13.69L2.04 13.69L2.04 13.69Q1.68 14.22 1.33 14.53L1.33 14.53L1.33 14.53Q0.97 14.84 0.63 14.84L0.63 14.84L0.63 14.84Q0.46 14.84 0.30 14.75L0.30 14.75L0.30 14.75Q0.14 14.66-0.01 14.51L-0.01 14.51L-0.01 14.51Q-0.16 14.37-0.29 14.19L-0.29 14.19L-0.29 14.19Q-0.42 14.01-0.51 13.85L-0.51 13.85L-0.51 13.85Q-0.60 13.69-0.66 13.55L-0.66 13.55L-0.66 13.55Q-0.71 13.41-0.71 13.34L-0.71 13.34L-0.71 13.34Q-0.71 12.92-0.58 12.39L-0.58 12.39L-0.58 12.39Q-0.44 11.87-0.21 11.28L-0.21 11.28L-0.21 11.28Q0.03 10.69 0.37 10.06L0.37 10.06L0.37 10.06Q0.70 9.43 1.11 8.80L1.11 8.80L1.11 8.80Q1.52 8.17 1.99 7.55L1.99 7.55L1.99 7.55Q2.46 6.93 2.97 6.36L2.97 6.36L2.97 6.36Q3.16 5.42 3.28 4.50L3.28 4.50L3.28 4.50Q3.40 3.58 3.43 2.73L3.43 2.73L3.43 2.73Q3.82 2.97 4.14 3.21L4.14 3.21L4.14 3.21Q4.46 3.45 4.68 3.65L4.68 3.65L4.68 3.65Q4.95 3.88 5.15 4.09L5.15 4.09L5.13 4.40L5.13 4.40Q5.78 3.93 6.41 3.67L6.41 3.67L6.41 3.67Q7.04 3.40 7.62 3.40L7.62 3.40L7.62 3.40Q7.90 3.40 8.16 3.56L8.16 3.56L8.16 3.56Q8.42 3.71 8.66 3.94L8.66 3.94L8.66 3.94Q8.91 4.16 9.12 4.43L9.12 4.43L9.12 4.43Q9.32 4.69 9.50 4.90ZM4.83 6.23L4.83 6.23L4.83 6.23Q4.70 6.84 4.53 7.50L4.53 7.50L4.53 7.50Q4.35 8.17 4.14 8.84L4.14 8.84L4.14 8.84Q3.93 9.52 3.69 10.19L3.69 10.19L3.69 10.19Q3.45 10.86 3.19 11.47L3.19 11.47L3.19 11.47Q2.93 12.09 2.65 12.63L2.65 12.63L2.65 12.63Q2.37 13.18 2.09 13.61L2.09 13.61L2.09 13.61Q2.95 13.48 3.68 13.15L3.68 13.15L3.68 13.15Q4.42 12.82 5.03 12.34L5.03 12.34L5.03 12.34Q5.65 11.85 6.15 11.26L6.15 11.26L6.15 11.26Q6.65 10.66 7.04 10.00L7.04 10.00L7.04 10.00Q7.43 9.34 7.72 8.66L7.72 8.66L7.72 8.66Q8.01 7.97 8.20 7.32L8.20 7.32L8.20 7.32Q8.38 6.67 8.47 6.07L8.47 6.07L8.47 6.07Q8.57 5.48 8.57 5.00L8.57 5.00L8.57 5.00Q8.57 4.85 8.53 4.70L8.53 4.70L8.53 4.70Q8.49 4.55 8.42 4.43L8.42 4.43L8.42 4.43Q8.34 4.31 8.23 4.23L8.23 4.23L8.23 4.23Q8.11 4.16 7.96 4.16L7.96 4.16L7.96 4.16Q7.68 4.16 7.32 4.31L7.32 4.31L7.32 4.31Q6.97 4.46 6.56 4.74L6.56 4.74L6.56 4.74Q6.16 5.02 5.72 5.40L5.72 5.40L5.72 5.40Q5.28 5.78 4.83 6.23ZM0.33 13.56L0.33 13.56L0.33 13.56Q0.46 13.62 0.68 13.31L0.68 13.31L0.68 13.31Q0.89 13.00 1.15 12.43L1.15 12.43L1.15 12.43Q1.41 11.85 1.69 11.05L1.69 11.05L1.69 11.05Q1.98 10.25 2.25 9.31L2.25 9.31L2.25 9.31Q1.81 9.92 1.44 10.50L1.44 10.50L1.44 10.50Q1.07 11.08 0.81 11.60L0.81 11.60L0.81 11.60Q0.54 12.11 0.39 12.54L0.39 12.54L0.39 12.54Q0.24 12.97 0.24 13.26L0.24 13.26L0.24 13.26Q0.24 13.49 0.33 13.56ZM9.80 14.05L9.80 14.05L9.80 14.05Q9.69 14.05 9.54 13.98L9.54 13.98L9.54 13.98Q9.38 13.91 9.24 13.81L9.24 13.81L9.24 13.81Q9.09 13.70 8.99 13.57L8.99 13.57L8.99 13.57Q8.89 13.44 8.89 13.32L8.89 13.32L8.89 13.32Q8.96 13.02 9.07 12.63L9.07 12.63L9.07 12.63Q9.19 12.24 9.32 11.83L9.32 11.83L9.32 11.83Q9.45 11.43 9.60 11.04L9.60 11.04L9.60 11.04Q9.75 10.66 9.87 10.36L9.87 10.36L9.87 10.36Q9.99 10.06 10.08 9.87L10.08 9.87L10.08 9.87Q10.17 9.69 10.19 9.69L10.19 9.69L10.19 9.69Q10.23 9.69 10.40 9.78L10.40 9.78L10.40 9.78Q10.56 9.86 10.74 9.99L10.74 9.99L10.74 9.99Q10.92 10.12 11.07 10.26L11.07 10.26L11.07 10.26Q11.21 10.40 11.21 10.50L11.21 10.50L11.21 10.50Q11.21 10.52 11.20 10.55L11.20 10.55L11.20 10.55Q11.20 10.58 11.18 10.63L11.18 10.63L11.18 10.63Q11.13 10.80 11.04 11.03L11.04 11.03L11.04 11.03Q10.96 11.27 10.86 11.52L10.86 11.52L10.86 11.52Q10.77 11.76 10.67 12.01L10.67 12.01L10.67 12.01Q10.58 12.26 10.50 12.48L10.50 12.48L10.50 12.48Q10.42 12.70 10.38 12.87L10.38 12.87L10.38 12.87Q10.33 13.03 10.33 13.10L10.33 13.10L10.33 13.10Q10.33 13.15 10.37 13.15L10.37 13.15L10.37 13.15Q10.45 13.15 10.60 13.06L10.60 13.06L10.60 13.06Q10.75 12.97 10.94 12.82L10.94 12.82L10.94 12.82Q11.14 12.68 11.35 12.51L11.35 12.51L11.35 12.51Q11.56 12.34 11.75 12.17L11.75 12.17L11.75 12.17Q11.95 12.00 12.11 11.87L12.11 11.87L12.11 11.87Q12.26 11.73 12.35 11.66L12.35 11.66L12.35 11.66Q12.41 11.72 12.49 11.82L12.49 11.82L12.49 11.82Q12.58 11.92 12.65 12.00L12.65 12.00L12.65 12.00Q12.50 12.15 12.28 12.36L12.28 12.36L12.28 12.36Q12.05 12.58 11.79 12.80L11.79 12.80L11.79 12.80Q11.53 13.03 11.24 13.25L11.24 13.25L11.24 13.25Q10.96 13.48 10.69 13.66L10.69 13.66L10.69 13.66Q10.42 13.84 10.19 13.95L10.19 13.95L10.19 13.95Q9.96 14.05 9.80 14.05ZM12.50 7.60L12.50 7.60L12.50 7.60Q12.50 7.63 12.45 7.73L12.45 7.73L12.45 7.73Q12.41 7.84 12.35 7.98L12.35 7.98L12.35 7.98Q12.28 8.12 12.21 8.27L12.21 8.27L12.21 8.27Q12.13 8.43 12.05 8.56L12.05 8.56L12.05 8.56Q11.98 8.69 11.91 8.77L11.91 8.77L11.91 8.77Q11.84 8.86 11.80 8.86L11.80 8.86L11.80 8.86Q11.68 8.85 11.50 8.78L11.50 8.78L11.50 8.78Q11.33 8.72 11.17 8.63L11.17 8.63L11.17 8.63Q11.01 8.54 10.89 8.46L10.89 8.46L10.89 8.46Q10.78 8.38 10.78 8.35L10.78 8.35L10.78 8.35Q10.78 8.20 10.86 7.97L10.86 7.97L10.86 7.97Q10.94 7.75 11.05 7.53L11.05 7.53L11.05 7.53Q11.16 7.31 11.28 7.16L11.28 7.16L11.28 7.16Q11.39 7 11.45 7L11.45 7L11.45 7Q11.57 7 11.75 7.08L11.75 7.08L11.75 7.08Q11.93 7.16 12.10 7.26L12.10 7.26L12.10 7.26Q12.26 7.36 12.38 7.46L12.38 7.46L12.38 7.46Q12.50 7.56 12.50 7.60ZM17.64 11.63L17.94 12.00L17.94 12.00Q17.36 12.60 16.77 13.10L16.77 13.10L16.77 13.10Q16.17 13.60 15.59 14.04L15.59 14.04L15.59 14.04Q15.48 14.36 15.36 14.68L15.36 14.68L15.36 14.68Q15.23 15.00 15.09 15.33L15.09 15.33L15.09 15.33Q14.90 15.78 14.63 16.20L14.63 16.20L14.63 16.20Q14.37 16.61 14.08 16.96L14.08 16.96L14.08 16.96Q13.78 17.32 13.47 17.60L13.47 17.60L13.47 17.60Q13.17 17.88 12.88 18.08L12.88 18.08L12.88 18.08Q12.60 18.28 12.36 18.39L12.36 18.39L12.36 18.39Q12.11 18.50 11.94 18.50L11.94 18.50L11.94 18.50Q11.83 18.50 11.67 18.40L11.67 18.40L11.67 18.40Q11.51 18.29 11.37 18.14L11.37 18.14L11.37 18.14Q11.23 17.99 11.13 17.80L11.13 17.80L11.13 17.80Q11.03 17.62 11.03 17.46L11.03 17.46L11.03 17.46Q11.03 17.10 11.28 16.76L11.28 16.76L11.28 16.76Q11.52 16.42 11.95 16.06L11.95 16.06L11.95 16.06Q12.37 15.70 12.95 15.30L12.95 15.30L12.95 15.30Q13.52 14.90 14.19 14.43L14.19 14.43L14.19 14.43Q14.34 14.04 14.53 13.50L14.53 13.50L14.53 13.50Q14.72 12.97 14.98 12.18L14.98 12.18L14.98 12.18Q14.73 12.52 14.40 12.85L14.40 12.85L14.40 12.85Q14.08 13.19 13.73 13.45L13.73 13.45L13.73 13.45Q13.38 13.71 13.03 13.87L13.03 13.87L13.03 13.87Q12.69 14.03 12.40 14.03L12.40 14.03L12.40 14.03Q12.33 14.03 12.21 13.96L12.21 13.96L12.21 13.96Q12.09 13.88 11.97 13.77L11.97 13.77L11.97 13.77Q11.85 13.65 11.76 13.49L11.76 13.49L11.76 13.49Q11.68 13.34 11.68 13.16L11.68 13.16L11.68 13.16Q11.68 12.93 11.79 12.62L11.79 12.62L11.79 12.62Q11.89 12.30 12.10 11.94L12.10 11.94L12.10 11.94Q12.31 11.59 12.61 11.22L12.61 11.22L12.61 11.22Q12.91 10.85 13.28 10.52L13.28 10.52L13.28 10.52Q13.65 10.20 14.09 9.94L14.09 9.94L14.09 9.94Q14.53 9.69 15.03 9.55L15.03 9.55L15.03 9.55Q15.11 9.55 15.24 9.61L15.24 9.61L15.24 9.61Q15.38 9.67 15.51 9.74L15.51 9.74L15.51 9.74Q15.65 9.81 15.75 9.88L15.75 9.88L15.75 9.88Q15.85 9.95 15.85 9.97L15.85 9.97L15.85 9.97Q15.85 9.98 15.83 10.00L15.83 10.00L15.83 10.00Q15.81 10.01 15.80 10.01L15.80 10.01L15.80 10.01Q15.65 10.10 15.40 10.27L15.40 10.27L15.40 10.27Q15.16 10.45 14.88 10.66L14.88 10.66L14.88 10.66Q14.61 10.88 14.33 11.12L14.33 11.12L14.33 11.12Q14.06 11.37 13.84 11.61L13.84 11.61L13.84 11.61Q13.62 11.85 13.48 12.08L13.48 12.08L13.48 12.08Q13.34 12.30 13.34 12.48L13.34 12.48L13.34 12.48Q13.34 12.54 13.37 12.58L13.37 12.58L13.37 12.58Q13.41 12.63 13.47 12.63L13.47 12.63L13.47 12.63Q13.64 12.63 13.85 12.51L13.85 12.51L13.85 12.51Q14.07 12.39 14.29 12.20L14.29 12.20L14.29 12.20Q14.52 12.00 14.75 11.77L14.75 11.77L14.75 11.77Q14.97 11.53 15.17 11.30L15.17 11.30L15.17 11.30Q15.37 11.07 15.53 10.88L15.53 10.88L15.53 10.88Q15.69 10.68 15.78 10.55L15.78 10.55L15.78 10.55Q15.79 10.54 15.80 10.53L15.80 10.53L15.80 10.53Q15.81 10.51 15.83 10.50L15.83 10.50L15.83 10.50Q15.89 10.51 15.98 10.64L15.98 10.64L15.98 10.64Q16.07 10.76 16.16 10.92L16.16 10.92L16.16 10.92Q16.25 11.08 16.31 11.24L16.31 11.24L16.31 11.24Q16.38 11.40 16.38 11.46L16.38 11.46L16.38 11.48L16.38 11.48Q16.38 11.48 16.37 11.53L16.37 11.53L16.37 11.53Q16.29 11.76 16.17 12.20L16.17 12.20L16.17 12.20Q16.06 12.63 15.88 13.19L15.88 13.19L15.88 13.19Q16.32 12.84 16.76 12.46L16.76 12.46L16.76 12.46Q17.20 12.07 17.64 11.63L17.64 11.63ZM11.84 17.58L11.84 17.58L11.84 17.58Q11.98 17.58 12.23 17.37L12.23 17.37L12.23 17.37Q12.49 17.17 12.78 16.84L12.78 16.84L12.78 16.84Q13.06 16.52 13.34 16.12L13.34 16.12L13.34 16.12Q13.62 15.73 13.80 15.36L13.80 15.36L13.80 15.36Q13.36 15.68 12.99 15.97L12.99 15.97L12.99 15.97Q12.62 16.25 12.36 16.52L12.36 16.52L12.36 16.52Q12.09 16.78 11.95 17.03L11.95 17.03L11.95 17.03Q11.80 17.28 11.80 17.53L11.80 17.53L11.80 17.53Q11.80 17.58 11.84 17.58ZM18.04 14.05L18.04 14.05L18.04 14.05Q17.94 14.05 17.78 13.98L17.78 13.98L17.78 13.98Q17.62 13.91 17.48 13.81L17.48 13.81L17.48 13.81Q17.34 13.70 17.23 13.57L17.23 13.57L17.23 13.57Q17.13 13.44 17.13 13.32L17.13 13.32L17.13 13.32Q17.20 13.02 17.32 12.63L17.32 12.63L17.32 12.63Q17.43 12.24 17.56 11.83L17.56 11.83L17.56 11.83Q17.70 11.43 17.85 11.04L17.85 11.04L17.85 11.04Q17.99 10.66 18.11 10.36L18.11 10.36L18.11 10.36Q18.23 10.06 18.32 9.87L18.32 9.87L18.32 9.87Q18.41 9.69 18.44 9.69L18.44 9.69L18.44 9.69Q18.48 9.69 18.64 9.78L18.64 9.78L18.64 9.78Q18.81 9.86 18.99 9.99L18.99 9.99L18.99 9.99Q19.17 10.12 19.31 10.26L19.31 10.26L19.31 10.26Q19.46 10.40 19.46 10.50L19.46 10.50L19.46 10.50Q19.46 10.52 19.45 10.55L19.45 10.55L19.45 10.55Q19.44 10.58 19.43 10.63L19.43 10.63L19.43 10.63Q19.37 10.80 19.29 11.03L19.29 11.03L19.29 11.03Q19.20 11.27 19.11 11.52L19.11 11.52L19.11 11.52Q19.01 11.76 18.92 12.01L18.92 12.01L18.92 12.01Q18.82 12.26 18.74 12.48L18.74 12.48L18.74 12.48Q18.67 12.70 18.62 12.87L18.62 12.87L18.62 12.87Q18.57 13.03 18.57 13.10L18.57 13.10L18.57 13.10Q18.57 13.15 18.61 13.15L18.61 13.15L18.61 13.15Q18.69 13.15 18.84 13.06L18.84 13.06L18.84 13.06Q18.99 12.97 19.19 12.82L19.19 12.82L19.19 12.82Q19.38 12.68 19.59 12.51L19.59 12.51L19.59 12.51Q19.80 12.34 20.00 12.17L20.00 12.17L20.00 12.17Q20.19 12.00 20.35 11.87L20.35 11.87L20.35 11.87Q20.51 11.73 20.59 11.66L20.59 11.66L20.59 11.66Q20.65 11.72 20.74 11.82L20.74 11.82L20.74 11.82Q20.82 11.92 20.90 12.00L20.90 12.00L20.90 12.00Q20.75 12.15 20.52 12.36L20.52 12.36L20.52 12.36Q20.30 12.58 20.03 12.80L20.03 12.80L20.03 12.80Q19.77 13.03 19.49 13.25L19.49 13.25L19.49 13.25Q19.20 13.48 18.94 13.66L18.94 13.66L18.94 13.66Q18.67 13.84 18.44 13.95L18.44 13.95L18.44 13.95Q18.20 14.05 18.04 14.05ZM20.75 7.60L20.75 7.60L20.75 7.60Q20.74 7.63 20.70 7.73L20.70 7.73L20.70 7.73Q20.65 7.84 20.59 7.98L20.59 7.98L20.59 7.98Q20.53 8.12 20.45 8.27L20.45 8.27L20.45 8.27Q20.37 8.43 20.30 8.56L20.30 8.56L20.30 8.56Q20.22 8.69 20.15 8.77L20.15 8.77L20.15 8.77Q20.08 8.86 20.04 8.86L20.04 8.86L20.04 8.86Q19.92 8.85 19.75 8.78L19.75 8.78L19.75 8.78Q19.57 8.72 19.41 8.63L19.41 8.63L19.41 8.63Q19.25 8.54 19.14 8.46L19.14 8.46L19.14 8.46Q19.02 8.38 19.02 8.35L19.02 8.35L19.02 8.35Q19.02 8.20 19.11 7.97L19.11 7.97L19.11 7.97Q19.19 7.75 19.30 7.53L19.30 7.53L19.30 7.53Q19.41 7.31 19.52 7.16L19.52 7.16L19.52 7.16Q19.63 7 19.69 7L19.69 7L19.69 7Q19.82 7 20.00 7.08L20.00 7.08L20.00 7.08Q20.17 7.16 20.34 7.26L20.34 7.26L20.34 7.26Q20.51 7.36 20.63 7.46L20.63 7.46L20.63 7.46Q20.75 7.56 20.75 7.60ZM21.19 14.05L21.19 14.05L21.19 14.05Q21.08 14.05 20.89 13.95L20.89 13.95L20.89 13.95Q20.70 13.84 20.52 13.69L20.52 13.69L20.52 13.69Q20.34 13.54 20.21 13.37L20.21 13.37L20.21 13.37Q20.08 13.21 20.08 13.09L20.08 13.09L20.08 13.09Q20.08 12.89 20.20 12.44L20.20 12.44L20.20 12.44Q20.31 12.00 20.49 11.43L20.49 11.43L20.49 11.43Q20.68 10.86 20.91 10.21L20.91 10.21L20.91 10.21Q21.15 9.56 21.39 8.93L21.39 8.93L20.43 8.93L20.42 8.93L20.42 8.93Q20.41 8.93 20.41 8.92L20.41 8.92L20.41 8.92Q20.41 8.88 20.44 8.80L20.44 8.80L20.44 8.80Q20.47 8.72 20.52 8.64L20.52 8.64L20.52 8.64Q20.56 8.55 20.62 8.48L20.62 8.48L20.62 8.48Q20.68 8.41 20.73 8.39L20.73 8.39L21.62 8.35L21.62 8.35Q21.81 7.88 21.99 7.49L21.99 7.49L21.99 7.49Q22.16 7.10 22.30 6.82L22.30 6.82L22.30 6.82Q22.33 6.74 22.37 6.65L22.37 6.65L22.37 6.65Q22.41 6.57 22.48 6.48L22.48 6.48L22.48 6.48Q22.55 6.40 22.67 6.31L22.67 6.31L22.67 6.31Q22.79 6.21 23.00 6.12L23.00 6.12L23.00 6.12Q23.15 6.04 23.36 5.95L23.36 5.95L23.36 5.95Q23.58 5.87 23.79 5.79L23.79 5.79L23.79 5.79Q23.99 5.71 24.17 5.66L24.17 5.66L24.17 5.66Q24.34 5.61 24.41 5.61L24.41 5.61L24.41 5.61Q24.48 5.61 24.48 5.64L24.48 5.64L24.48 5.65L24.48 5.65Q24.48 5.66 24.47 5.69L24.47 5.69L24.47 5.69Q24.42 5.76 24.32 5.98L24.32 5.98L24.32 5.98Q24.21 6.21 24.05 6.56L24.05 6.56L24.05 6.56Q23.88 6.90 23.69 7.35L23.69 7.35L23.69 7.35Q23.50 7.79 23.29 8.28L23.29 8.28L24.93 8.22L24.93 8.22Q25.00 8.22 24.97 8.30L24.97 8.30L24.97 8.30Q24.94 8.38 24.87 8.49L24.87 8.49L24.87 8.49Q24.79 8.60 24.69 8.72L24.69 8.72L24.69 8.72Q24.60 8.83 24.53 8.89L24.53 8.89L24.53 8.89Q24.51 8.91 24.47 8.92L24.47 8.92L24.47 8.92Q24.43 8.93 24.37 8.93L24.37 8.93L23.02 8.93L23.02 8.93Q22.77 9.53 22.54 10.14L22.54 10.14L22.54 10.14Q22.32 10.75 22.14 11.29L22.14 11.29L22.14 11.29Q21.96 11.84 21.86 12.30L21.86 12.30L21.86 12.30Q21.75 12.76 21.75 13.05L21.75 13.05L21.75 13.05Q21.75 13.09 21.79 13.09L21.79 13.09L21.79 13.09Q21.87 13.09 22.02 13.01L22.02 13.01L22.02 13.01Q22.17 12.92 22.36 12.78L22.36 12.78L22.36 12.78Q22.54 12.65 22.76 12.48L22.76 12.48L22.76 12.48Q22.97 12.32 23.16 12.16L23.16 12.16L23.16 12.16Q23.35 12.00 23.51 11.86L23.51 11.86L23.51 11.86Q23.66 11.73 23.74 11.66L23.74 11.66L23.74 11.66Q23.80 11.72 23.89 11.82L23.89 11.82L23.89 11.82Q23.97 11.92 24.05 12.00L24.05 12.00L24.05 12.00Q23.90 12.15 23.67 12.36L23.67 12.36L23.67 12.36Q23.45 12.58 23.18 12.80L23.18 12.80L23.18 12.80Q22.92 13.03 22.64 13.25L22.64 13.25L22.64 13.25Q22.35 13.48 22.08 13.66L22.08 13.66L22.08 13.66Q21.81 13.84 21.58 13.95L21.58 13.95L21.58 13.95Q21.35 14.05 21.19 14.05ZM24.55 12.98L24.55 12.98L24.55 12.98Q24.55 13.19 24.71 13.19L24.71 13.19L24.71 13.19Q24.86 13.19 25.12 12.94L25.12 12.94L25.12 12.94Q25.38 12.69 25.66 12.30L25.66 12.30L25.66 12.30Q25.65 12.23 25.65 12.17L25.65 12.17L25.65 12.17Q25.64 12.11 25.64 12.07L25.64 12.07L25.64 12.07Q25.64 11.93 25.67 11.74L25.67 11.74L25.67 11.74Q25.70 11.55 25.83 11.31L25.83 11.31L25.83 11.31Q25.91 11.13 26.02 10.95L26.02 10.95L26.02 10.95Q26.12 10.79 26.26 10.61L26.26 10.61L26.26 10.61Q26.39 10.43 26.56 10.27L26.56 10.27L26.60 10.23L26.60 10.23Q26.67 10.32 26.78 10.46L26.78 10.46L26.78 10.46Q26.89 10.60 27.01 10.74L27.01 10.74L27.01 10.74Q27.12 10.89 27.20 11.01L27.20 11.01L27.20 11.01Q27.29 11.14 27.31 11.18L27.31 11.18L27.31 11.18Q27.31 11.48 27.20 11.77L27.20 11.77L27.20 11.77Q27.10 12.07 26.92 12.35L26.92 12.35L26.92 12.35Q27.33 12.33 27.68 12.14L27.68 12.14L27.68 12.14Q28.03 11.96 28.42 11.55L28.42 11.55L28.42 11.55Q28.48 11.61 28.58 11.72L28.58 11.72L28.58 11.72Q28.68 11.83 28.74 11.90L28.74 11.90L28.74 11.90Q28.45 12.20 28.17 12.40L28.17 12.40L28.17 12.40Q27.90 12.60 27.62 12.71L27.62 12.71L27.62 12.71Q27.34 12.83 27.06 12.88L27.06 12.88L27.06 12.88Q26.77 12.93 26.47 12.93L26.47 12.93L26.47 12.93Q26.24 13.18 25.97 13.38L25.97 13.38L25.97 13.38Q25.70 13.59 25.43 13.74L25.43 13.74L25.43 13.74Q25.15 13.89 24.88 13.97L24.88 13.97L24.88 13.97Q24.60 14.05 24.36 14.05L24.36 14.05L24.36 14.05Q24.15 14.05 23.93 13.93L23.93 13.93L23.93 13.93Q23.71 13.81 23.54 13.63L23.54 13.63L23.54 13.63Q23.36 13.45 23.24 13.24L23.24 13.24L23.24 13.24Q23.13 13.04 23.13 12.88L23.13 12.88L23.13 12.88Q23.13 12.36 23.27 11.85L23.27 11.85L23.27 11.85Q23.41 11.33 23.70 10.89L23.70 10.89L23.70 10.89Q24.00 10.44 24.46 10.10L24.46 10.10L24.46 10.10Q24.92 9.75 25.56 9.58L25.56 9.58L25.56 9.58Q25.58 9.56 25.63 9.56L25.63 9.56L25.63 9.56Q25.68 9.55 25.72 9.55L25.72 9.55L25.72 9.55Q25.81 9.55 25.92 9.62L25.92 9.62L25.92 9.62Q26.02 9.69 26.12 9.78L26.12 9.78L26.12 9.78Q26.21 9.87 26.27 9.96L26.27 9.96L26.27 9.96Q26.33 10.04 26.33 10.07L26.33 10.07L26.33 10.07Q26.32 10.10 26.23 10.15L26.23 10.15L26.23 10.15Q26.14 10.21 25.99 10.33L25.99 10.33L25.99 10.33Q25.84 10.45 25.63 10.68L25.63 10.68L25.63 10.68Q25.43 10.91 25.18 11.29L25.18 11.29L25.18 11.29Q24.81 11.84 24.68 12.29L24.68 12.29L24.68 12.29Q24.55 12.74 24.55 12.98ZM38.62 4.03L38.62 4.03L38.62 4.03Q38.21 5.17 37.85 6.34L37.85 6.34L37.85 6.34Q37.49 7.51 37.21 8.84L37.21 8.84L37.21 8.84Q36.94 10.17 36.78 11.71L36.78 11.71L36.78 11.71Q36.61 13.25 36.61 15.12L36.61 15.12L36.61 15.12Q36.52 15.18 36.36 15.27L36.36 15.27L36.36 15.27Q36.20 15.36 36.01 15.47L36.01 15.47L36.01 15.47Q35.81 15.57 35.60 15.68L35.60 15.68L35.60 15.68Q35.39 15.79 35.19 15.89L35.19 15.89L35.19 15.89Q35 16.00 34.84 16.08L34.84 16.08L34.84 16.08Q34.69 16.16 34.60 16.20L34.60 16.20L34.60 16.20Q34.61 15.69 34.67 15.07L34.67 15.07L34.67 15.07Q34.73 14.46 34.84 13.78L34.84 13.78L34.84 13.78Q34.95 13.10 35.09 12.37L35.09 12.37L35.09 12.37Q35.23 11.63 35.39 10.89L35.39 10.89L35.39 10.89Q34.90 11.55 34.45 11.99L34.45 11.99L34.45 11.99Q34.00 12.43 33.65 12.70L33.65 12.70L33.65 12.70Q33.25 13.02 32.90 13.20L32.90 13.20L32.90 13.20Q32.76 13.28 32.55 13.21L32.55 13.21L32.55 13.21Q32.35 13.15 32.15 13.01L32.15 13.01L32.15 13.01Q31.94 12.87 31.78 12.71L31.78 12.71L31.78 12.71Q31.61 12.54 31.54 12.43L31.54 12.43L31.54 12.43Q31.47 12.33 31.39 11.81L31.39 11.81L31.39 11.81Q31.32 11.30 31.28 10.34L31.28 10.34L31.28 10.34Q30.99 10.73 30.65 11.15L30.65 11.15L30.65 11.15Q30.30 11.57 29.95 11.99L29.95 11.99L29.95 11.99Q29.60 12.41 29.26 12.81L29.26 12.81L29.26 12.81Q28.92 13.20 28.62 13.52L28.62 13.52L28.62 13.52Q28.32 13.85 28.09 14.09L28.09 14.09L28.09 14.09Q27.85 14.32 27.72 14.42L27.72 14.42L27.72 14.42Q27.65 14.35 27.55 14.25L27.55 14.25L27.55 14.25Q27.45 14.16 27.35 14.05L27.35 14.05L27.35 14.05Q27.24 13.95 27.14 13.84L27.14 13.84L27.14 13.84Q27.04 13.73 26.96 13.64L26.96 13.64L26.96 13.64Q27.96 12.76 28.98 11.17L28.98 11.17L28.98 11.17Q30.01 9.57 30.94 7.32L30.94 7.32L30.94 7.32Q31.04 7.41 31.13 7.49L31.13 7.49L31.13 7.49Q31.22 7.57 31.30 7.66L31.30 7.66L31.30 7.66Q31.36 6.58 31.47 5.26L31.47 5.26L31.47 5.26Q31.58 3.94 31.79 2.34L31.79 2.34L31.79 2.34Q31.83 2.35 31.95 2.47L31.95 2.47L31.95 2.47Q32.08 2.58 32.25 2.76L32.25 2.76L32.25 2.76Q32.42 2.93 32.61 3.13L32.61 3.13L32.61 3.13Q32.81 3.34 32.98 3.52L32.98 3.52L32.98 3.52Q33.15 3.71 33.28 3.85L33.28 3.85L33.28 3.85Q33.41 3.99 33.46 4.05L33.46 4.05L33.46 4.05Q33.45 4.10 33.40 4.34L33.40 4.34L33.40 4.34Q33.35 4.58 33.29 4.96L33.29 4.96L33.29 4.96Q33.22 5.33 33.15 5.82L33.15 5.82L33.15 5.82Q33.07 6.30 33.01 6.85L33.01 6.85L33.01 6.85Q32.95 7.39 32.90 7.97L32.90 7.97L32.90 7.97Q32.86 8.54 32.85 9.10L32.85 9.10L32.85 9.10Q32.85 9.33 32.84 9.64L32.84 9.64L32.84 9.64Q32.84 9.94 32.84 10.26L32.84 10.26L32.84 10.26Q32.84 10.58 32.85 10.89L32.85 10.89L32.85 10.89Q32.86 11.20 32.88 11.45L32.88 11.45L32.88 11.45Q32.90 11.70 32.94 11.86L32.94 11.86L32.94 11.86Q32.98 12.02 33.04 12.04L33.04 12.04L33.04 12.04Q33.11 12.06 33.40 11.84L33.40 11.84L33.40 11.84Q33.69 11.62 34.09 11.20L34.09 11.20L34.09 11.20Q34.49 10.77 34.97 10.17L34.97 10.17L34.97 10.17Q35.44 9.56 35.89 8.81L35.89 8.81L35.89 8.81Q36.09 8.01 36.30 7.27L36.30 7.27L36.30 7.27Q36.51 6.52 36.71 5.89L36.71 5.89L36.71 5.89Q36.90 5.25 37.07 4.75L37.07 4.75L37.07 4.75Q37.24 4.25 37.38 3.92L37.38 3.92L37.38 3.92Q37.52 3.93 37.69 3.94L37.69 3.94L37.69 3.94Q37.86 3.95 38.04 3.97L38.04 3.97L38.04 3.97Q38.22 3.99 38.37 4.00L38.37 4.00L38.37 4.00Q38.53 4.02 38.62 4.03ZM41.87 13.08L41.87 13.08L41.87 13.08Q41.87 13.12 41.91 13.12L41.91 13.12L41.91 13.12Q41.99 13.12 42.14 13.03L42.14 13.03L42.14 13.03Q42.29 12.94 42.49 12.80L42.49 12.80L42.49 12.80Q42.69 12.67 42.91 12.50L42.91 12.50L42.91 12.50Q43.13 12.33 43.33 12.16L43.33 12.16L43.33 12.16Q43.52 12.00 43.69 11.87L43.69 11.87L43.69 11.87Q43.85 11.73 43.93 11.66L43.93 11.66L43.93 11.66Q43.99 11.72 44.07 11.82L44.07 11.82L44.07 11.82Q44.16 11.92 44.24 12.00L44.24 12.00L44.24 12.00Q44.08 12.15 43.86 12.36L43.86 12.36L43.86 12.36Q43.63 12.57 43.36 12.80L43.36 12.80L43.36 12.80Q43.09 13.03 42.80 13.25L42.80 13.25L42.80 13.25Q42.51 13.47 42.23 13.65L42.23 13.65L42.23 13.65Q41.96 13.82 41.72 13.93L41.72 13.93L41.72 13.93Q41.48 14.04 41.32 14.04L41.32 14.04L41.32 14.04Q41.21 14.04 41.06 13.97L41.06 13.97L41.06 13.97Q40.92 13.90 40.79 13.78L40.79 13.78L40.79 13.78Q40.67 13.67 40.58 13.54L40.58 13.54L40.58 13.54Q40.50 13.40 40.50 13.28L40.50 13.28L40.50 13.28Q40.50 13.17 40.58 12.86L40.58 12.86L40.58 12.86Q40.66 12.55 40.78 12.14L40.78 12.14L40.78 12.14Q40.47 12.56 40.17 12.88L40.17 12.88L40.17 12.88Q39.88 13.19 39.63 13.42L39.63 13.42L39.63 13.42Q39.39 13.64 39.20 13.78L39.20 13.78L39.20 13.78Q39.02 13.92 38.93 13.99L38.93 13.99L38.93 13.99Q38.88 14.02 38.80 14.04L38.80 14.04L38.80 14.04Q38.73 14.05 38.66 14.05L38.66 14.05L38.66 14.05Q38.53 14.05 38.38 13.98L38.38 13.98L38.38 13.98Q38.22 13.90 38.09 13.78L38.09 13.78L38.09 13.78Q37.95 13.67 37.86 13.52L37.86 13.52L37.86 13.52Q37.77 13.38 37.77 13.25L37.77 13.25L37.77 13.25Q37.77 13.10 37.87 12.75L37.87 12.75L37.87 12.75Q37.97 12.40 38.13 11.92L38.13 11.92L38.13 11.92Q38.30 11.43 38.53 10.83L38.53 10.83L38.53 10.83Q38.75 10.23 39.01 9.56L39.01 9.56L39.01 9.56Q39.03 9.53 39.04 9.53L39.04 9.53L39.04 9.53Q39.05 9.54 39.07 9.54L39.07 9.54L39.07 9.54Q39.20 9.56 39.43 9.64L39.43 9.64L39.43 9.64Q39.66 9.73 39.87 9.83L39.87 9.83L39.87 9.83Q40.09 9.93 40.24 10.02L40.24 10.02L40.24 10.02Q40.40 10.12 40.40 10.15L40.40 10.15L40.40 10.15Q40.38 10.20 40.29 10.38L40.29 10.38L40.29 10.38Q40.21 10.55 40.10 10.80L40.10 10.80L40.10 10.80Q39.98 11.05 39.86 11.34L39.86 11.34L39.86 11.34Q39.73 11.63 39.62 11.90L39.62 11.90L39.62 11.90Q39.52 12.17 39.45 12.38L39.45 12.38L39.45 12.38Q39.38 12.60 39.38 12.70L39.38 12.70L39.38 12.70Q39.38 12.73 39.41 12.73L39.41 12.73L39.41 12.73Q39.46 12.73 39.65 12.58L39.65 12.58L39.65 12.58Q39.83 12.43 40.10 12.12L40.10 12.12L40.10 12.12Q40.37 11.81 40.71 11.31L40.71 11.31L40.71 11.31Q41.06 10.81 41.43 10.12L41.43 10.12L41.62 9.58L41.62 9.58Q41.64 9.52 41.71 9.52L41.71 9.52L41.71 9.52Q41.75 9.52 41.91 9.61L41.91 9.61L41.91 9.61Q42.08 9.71 42.26 9.83L42.26 9.83L42.26 9.83Q42.44 9.95 42.58 10.07L42.58 10.07L42.58 10.07Q42.72 10.19 42.74 10.23L42.74 10.23L42.74 10.23Q42.74 10.25 42.73 10.31L42.73 10.31L42.73 10.31Q42.72 10.36 42.71 10.39L42.71 10.39L42.71 10.39Q42.64 10.58 42.55 10.82L42.55 10.82L42.55 10.82Q42.46 11.07 42.37 11.34L42.37 11.34L42.37 11.34Q42.28 11.61 42.19 11.89L42.19 11.89L42.19 11.89Q42.10 12.16 42.03 12.40L42.03 12.40L42.03 12.40Q41.96 12.63 41.91 12.81L41.91 12.81L41.91 12.81Q41.87 13.00 41.87 13.08ZM47.11 12.97L47.11 12.97L47.11 12.97Q46.82 12.97 46.61 12.87L46.61 12.87L46.61 12.87Q46.38 13.11 46.14 13.32L46.14 13.32L46.14 13.32Q45.89 13.53 45.65 13.69L45.65 13.69L45.65 13.69Q45.41 13.85 45.18 13.95L45.18 13.95L45.18 13.95Q44.95 14.04 44.74 14.05L44.74 14.05L44.74 14.05Q44.64 14.05 44.44 13.97L44.44 13.97L44.44 13.97Q44.25 13.88 44.06 13.74L44.06 13.74L44.06 13.74Q43.87 13.60 43.73 13.42L43.73 13.42L43.73 13.42Q43.59 13.23 43.59 13.05L43.59 13.05L43.59 13.05Q43.59 12.60 43.68 12.14L43.68 12.14L43.68 12.14Q43.77 11.69 43.90 11.25L43.90 11.25L43.90 11.25Q44.04 10.80 44.20 10.37L44.20 10.37L44.20 10.37Q44.36 9.95 44.50 9.55L44.50 9.55L44.50 9.55Q44.85 9.71 45.18 9.90L45.18 9.90L45.18 9.90Q45.51 10.09 45.80 10.35L45.80 10.35L45.80 10.35Q45.70 10.55 45.60 10.82L45.60 10.82L45.60 10.82Q45.49 11.09 45.40 11.38L45.40 11.38L45.40 11.38Q45.30 11.66 45.22 11.95L45.22 11.95L45.22 11.95Q45.14 12.24 45.08 12.48L45.08 12.48L45.08 12.48Q45.01 12.73 44.98 12.92L44.98 12.92L44.98 12.92Q44.95 13.10 44.95 13.19L44.95 13.19L44.95 13.19Q44.95 13.24 44.97 13.29L44.97 13.29L44.97 13.29Q44.99 13.33 45.05 13.33L45.05 13.33L45.05 13.33Q45.16 13.33 45.29 13.26L45.29 13.26L45.29 13.26Q45.42 13.19 45.58 13.08L45.58 13.08L45.58 13.08Q45.73 12.97 45.88 12.81L45.88 12.81L45.88 12.81Q46.03 12.66 46.18 12.49L46.18 12.49L46.18 12.49Q46.05 12.28 46.05 12.07L46.05 12.07L46.05 12.07Q46.05 11.92 46.10 11.72L46.10 11.72L46.10 11.72Q46.14 11.52 46.22 11.30L46.22 11.30L46.22 11.30Q46.29 11.08 46.39 10.86L46.39 10.86L46.39 10.86Q46.48 10.64 46.58 10.45L46.58 10.45L46.58 10.45Q46.68 10.25 46.77 10.11L46.77 10.11L46.77 10.11Q46.86 9.97 46.94 9.90L46.94 9.90L46.94 9.90Q47.09 9.96 47.26 10.07L47.26 10.07L47.26 10.07Q47.43 10.17 47.58 10.29L47.58 10.29L47.58 10.29Q47.72 10.41 47.81 10.52L47.81 10.52L47.81 10.52Q47.91 10.64 47.92 10.71L47.92 10.71L47.92 10.71Q47.92 10.86 47.85 11.05L47.85 11.05L47.85 11.05Q47.78 11.24 47.66 11.46L47.66 11.46L47.66 11.46Q47.54 11.68 47.38 11.93L47.38 11.93L47.38 11.93Q47.21 12.17 47.01 12.41L47.01 12.41L47.01 12.41Q47.05 12.43 47.10 12.44L47.10 12.44L47.10 12.44Q47.14 12.45 47.20 12.45L47.20 12.45L47.20 12.45Q47.48 12.45 47.69 12.39L47.69 12.39L47.69 12.39Q47.90 12.34 48.09 12.23L48.09 12.23L48.09 12.23Q48.28 12.13 48.47 11.97L48.47 11.97L48.47 11.97Q48.65 11.81 48.87 11.61L48.87 11.61L48.87 11.61Q48.93 11.67 49.03 11.77L49.03 11.77L49.03 11.77Q49.13 11.87 49.19 11.94L49.19 11.94L49.19 11.94Q48.90 12.23 48.65 12.42L48.65 12.42L48.65 12.42Q48.39 12.62 48.14 12.74L48.14 12.74L48.14 12.74Q47.89 12.86 47.64 12.91L47.64 12.91L47.64 12.91Q47.39 12.97 47.11 12.97Z"></path></g><defs data-v-423bf9ae=""><linearGradient data-v-423bf9ae="" gradientTransform="rotate(25)" id="810efd60-c370-4492-aebd-0a4037b84921" x1="0%" y1="0%" x2="100%" y2="0%"><stop data-v-423bf9ae="" offset="0%" style="stop-color: rgb(208, 160, 112); stop-opacity: 1;"></stop><stop data-v-423bf9ae="" offset="100%" style="stop-color: rgb(107, 227, 113); stop-opacity: 1;"></stop></linearGradient></defs><g data-v-423bf9ae="" id="5ceb7c86-dc96-4d35-b251-e6dcd723d180" transform="matrix(1.0868111504448785,0,0,1.0868111504448785,-13.255261890115804,-0.23894260335429607)" stroke="none" fill="url(#810efd60-c370-4492-aebd-0a4037b84921)"><g clip-rule="evenodd"><path d="M12.983 10.59l17.018 88.223-5.872-59.049 29.021-1.892-.054-9.883L64.549 1 53.622 18.977z"></path><path d="M59.389 54.548l5.16-53.541-8.74 39.716-19.612 1.045 1.57 20.462-7.766 36.583 12.057-39.899z"></path><path d="M62.8 67.182l.549-10.453-15.979 3.755-.032 11.797-17.337 26.532 21.68-27.616zM65.711 62.394l14.841-4.731 1.509-12.532-15.899 2.095zM72.07 44.502l10.988-1.417 1.581-10.278-8.079-.373L64.549 1l8.43 30.967z"></path><path d="M87.413 31.294l1.256-9.506-9.544-2.694L64.549 1l14.483 22.437-.422 7z"></path></g></g><!----><g data-v-423bf9ae="" id="6fe985a1-307a-41fb-aa2e-ed0c82c83bce" fill="#000000" transform="matrix(0.6506234702952335,0,0,0.6506234702952335,102.7380124448713,59.56011314862073)"><path d="M5.38 1.59L5.38 1.59Q4.28 1.45 2.60 1.75L2.60 1.75L2.60 1.75Q2.60 1.74 2.61 1.70L2.61 1.70L2.61 1.70Q2.63 1.66 2.63 1.64L2.63 1.64L2.63 1.64Q2.69 1.39 2.04 1.50L2.04 1.50L2.04 1.50Q1.74 1.56 1.49 1.67L1.49 1.67L1.49 1.67Q1.22 1.80 1.19 1.90L1.19 1.90L1.19 1.90Q1.20 1.88 1.14 2.08L1.14 2.08L1.14 2.08Q0.95 2.18 0.89 2.30L0.89 2.30L0.89 2.30Q0.82 2.43 1.04 2.45L1.04 2.45L1.04 2.45Q-0.23 7.25-0.74 10.98L-0.74 10.98L-0.74 10.98Q-0.75 11.10-0.37 11.07L-0.37 11.07L-0.37 11.07Q-0.12 11.05 0.05 11.00L0.05 11.00L0.05 11.00Q0.69 10.83 0.72 10.59L0.72 10.59L0.72 10.59Q0.94 8.95 1.31 7.16L1.31 7.16L1.31 7.16Q1.24 7.17 2.30 7.09L2.30 7.09L2.30 7.09Q2.94 7.05 3.27 6.75L3.27 6.75L3.27 6.75Q3.43 6.60 3.24 6.54L3.24 6.54L3.24 6.54Q3.11 6.50 2.93 6.51L2.93 6.51L2.93 6.51Q1.80 6.60 1.41 6.66L1.41 6.66L1.41 6.66Q1.83 4.65 2.47 2.24L2.47 2.24L2.47 2.24Q3.49 2.06 4.18 2.15L4.18 2.15L4.18 2.15Q4.66 2.21 5.20 1.96L5.20 1.96L5.20 1.96Q5.34 1.89 5.45 1.78L5.45 1.78L5.45 1.78Q5.60 1.62 5.38 1.59L5.38 1.59ZM13.88 5.20L13.88 5.20Q13.76 6.64 13.49 7.92L13.49 7.92L13.49 7.92Q13.08 9.88 12.31 10.64L12.31 10.64L12.31 10.64Q12.22 10.55 12.15 10.38L12.15 10.38L12.15 10.38Q11.96 9.97 11.98 9.03L11.98 9.03L11.98 9.03Q12.00 7.34 12.58 5.48L12.58 5.48L12.58 5.48Q13.08 3.85 13.77 3.01L13.77 3.01L13.77 3.01Q13.85 3.25 13.90 3.62L13.90 3.62L13.90 3.62Q13.97 4.21 13.88 5.20L13.88 5.20ZM14.81 1.96L14.81 1.96Q14.61 1.79 13.87 2.05L13.87 2.05L13.87 2.05Q13.37 2.24 13.39 2.39L13.39 2.39L13.39 2.39Q13.14 2.48 12.96 2.63L12.96 2.63L12.96 2.63Q11.98 3.40 11.31 5.22L11.31 5.22L11.31 5.22Q10.77 6.70 10.58 8.50L10.58 8.50L10.58 8.50Q10.49 9.28 10.52 9.92L10.52 9.92L10.52 9.92Q10.56 10.77 10.92 11.13L10.92 11.13L10.92 11.13Q11.11 11.31 11.54 11.33L11.54 11.33L11.54 11.33Q12.08 11.36 12.91 11.02L12.91 11.02L12.91 11.02Q13.59 10.74 14.11 9.94L14.11 9.94L14.11 9.94Q14.58 9.21 14.90 7.85L14.90 7.85L14.90 7.85Q15.11 6.94 15.23 5.84L15.23 5.84L15.23 5.84Q15.39 4.44 15.39 3.78L15.39 3.78L15.39 3.78Q15.38 2.45 14.81 1.96L14.81 1.96ZM26.13 5.31L26.13 5.31Q25.98 6.24 25.09 7.18L25.09 7.18L25.09 7.18Q24.90 7.38 24.66 7.58L24.66 7.58L24.66 7.58Q24.60 7.63 24.53 7.68L24.53 7.68L24.53 7.68Q24.32 7.59 24.06 7.58L24.06 7.58L24.06 7.58Q24.62 4.74 24.77 2.66L24.77 2.66L24.77 2.66Q25.03 2.80 25.27 2.99L25.27 2.99L25.27 2.99Q25.79 3.39 26.02 4.03L26.02 4.03L26.02 4.03Q26.24 4.65 26.13 5.31L26.13 5.31ZM23.16 2.40L23.16 2.40Q23.16 2.40 23.17 2.39L23.17 2.39L23.17 2.39Q23.17 2.40 23.16 2.40L23.16 2.40ZM28.10 11.42L28.10 11.42Q27.36 10.88 25.83 8.99L25.83 8.99L25.83 8.99Q25.16 8.17 25.05 8.05L25.05 8.05L25.05 8.05Q25.50 7.84 25.94 7.50L25.94 7.50L25.94 7.50Q27.14 6.56 27.49 5.41L27.49 5.41L27.49 5.41Q27.74 4.60 27.54 3.84L27.54 3.84L27.54 3.84Q27.32 3.07 26.70 2.53L26.70 2.53L26.70 2.53Q25.46 1.46 23.39 1.88L23.39 1.88L23.39 1.88Q23.26 1.91 23.06 1.96L23.06 1.96L23.06 1.96Q22.32 2.14 22.38 2.37L22.38 2.37L22.38 2.37Q22.44 2.58 23.15 2.40L23.15 2.40L23.15 2.40Q23.22 2.39 23.27 2.38L23.27 2.38L23.27 2.38Q23.31 2.37 23.34 2.37L23.34 2.37L23.34 2.37Q23.23 5.11 21.99 10.79L21.99 10.79L21.99 10.79Q21.94 11.04 22.57 10.92L22.57 10.92L22.57 10.92Q22.88 10.87 23.13 10.75L23.13 10.75L23.13 10.75Q23.41 10.62 23.43 10.53L23.43 10.53L23.43 10.53Q23.73 9.17 23.82 8.72L23.82 8.72L23.82 8.72Q23.83 8.72 23.83 8.72L23.83 8.72L23.83 8.72Q23.84 8.72 23.84 8.72L23.84 8.72L23.84 8.72Q23.95 8.85 24.63 9.70L24.63 9.70L24.63 9.70Q25.95 11.34 26.71 11.92L26.71 11.92L26.71 11.92Q26.94 12.09 27.66 11.83L27.66 11.83L27.66 11.83Q27.84 11.76 27.99 11.67L27.99 11.67L27.99 11.67Q28.23 11.52 28.10 11.42L28.10 11.42ZM49.36 3.48L49.36 3.48Q49.31 1.70 48.47 1.01L48.47 1.01L48.47 1.01Q48.00 0.64 47.11 0.68L47.11 0.68L47.11 0.68Q46.11 0.72 44.86 1.40L44.86 1.40L44.86 1.40Q44.67 1.50 44.71 1.60L44.71 1.60L44.71 1.60Q44.74 1.70 44.94 1.71L44.94 1.71L44.94 1.71Q45.44 1.72 45.97 1.44L45.97 1.44L45.97 1.44Q45.99 1.43 46.01 1.42L46.01 1.42L46.01 1.42Q46.05 1.39 46.13 1.35L46.13 1.35L46.13 1.35Q46.17 1.34 46.25 1.31L46.25 1.31L46.25 1.31Q46.27 1.29 46.38 1.26L46.38 1.26L46.39 1.26L46.39 1.26Q46.40 1.25 46.40 1.26L46.40 1.26L46.40 1.26Q46.40 1.25 46.42 1.25L46.42 1.25L46.42 1.25Q46.46 1.25 46.50 1.26L46.50 1.26L46.50 1.26Q46.50 1.26 46.53 1.26L46.53 1.26L46.53 1.26Q46.57 1.26 46.57 1.26L46.57 1.26L46.57 1.26Q46.66 1.28 46.76 1.31L46.76 1.31L46.76 1.31Q46.76 1.31 46.76 1.31L46.76 1.31L46.76 1.31Q46.76 1.31 46.77 1.31L46.77 1.31L46.77 1.31Q46.80 1.33 46.85 1.35L46.85 1.35L46.85 1.35Q46.90 1.37 46.98 1.43L46.98 1.43L46.98 1.43Q47.11 1.51 47.24 1.65L47.24 1.65L47.24 1.65Q47.44 1.85 47.60 2.23L47.60 2.23L47.60 2.23Q48.19 3.66 47.66 6.11L47.66 6.11L47.66 6.11Q47.31 7.70 46.60 8.97L46.60 8.97L46.60 8.97Q46.25 9.60 45.84 10.03L45.84 10.03L45.84 10.03Q45.66 10.22 45.45 10.39L45.45 10.39L45.45 10.39Q46.54 5.68 47.00 1.78L47.00 1.78L47.00 1.78Q47.01 1.71 46.79 1.70L46.79 1.70L46.79 1.70Q46.57 1.69 46.30 1.74L46.30 1.74L46.30 1.74Q45.58 1.87 45.54 2.17L45.54 2.17L45.54 2.17Q45.07 6.19 43.89 11.16L43.89 11.16L43.89 11.16Q43.83 11.42 44.47 11.30L44.47 11.30L44.47 11.30Q44.78 11.25 45.03 11.12L45.03 11.12L45.03 11.12Q45.23 11.03 45.29 10.97L45.29 10.97L45.29 10.97Q45.55 10.93 45.94 10.77L45.94 10.77L45.94 10.77Q47.50 10.12 48.49 7.78L48.49 7.78L48.49 7.78Q49.40 5.63 49.36 3.48L49.36 3.48ZM57.29 2.53L57.29 2.53Q57.05 3.62 56.43 6.79L56.43 6.79L56.43 6.79Q56.19 8.03 56 8.93L56 8.93L56 8.93Q55.61 10.78 55.60 10.91L55.60 10.91L55.60 10.91Q55.60 10.99 55.83 11.00L55.83 11.00L55.83 11.00Q56.05 11.01 56.33 10.96L56.33 10.96L56.33 10.96Q57.06 10.81 57.07 10.52L57.07 10.52L57.07 10.52Q57.07 10.23 57.23 9.62L57.23 9.62L57.23 9.62Q57.31 9.32 57.46 8.57L57.46 8.57L57.46 8.57Q57.63 7.77 57.89 6.44L57.89 6.44L57.89 6.44Q58.49 3.36 58.73 2.27L58.73 2.27L58.73 2.27Q58.79 2.02 58.15 2.13L58.15 2.13L58.15 2.13Q57.85 2.19 57.59 2.31L57.59 2.31L57.59 2.31Q57.31 2.44 57.29 2.53L57.29 2.53ZM68.51 7.83L68.51 7.83L68.51 7.83Q68.52 7.83 68.55 7.81L68.55 7.81L68.55 7.81Q68.52 7.83 68.51 7.83L68.51 7.83ZM70.07 1.67L70.07 1.67Q69.69 0.90 68.34 1.50L68.34 1.50L68.34 1.50Q67.77 1.75 67.20 2.55L67.20 2.55L67.20 2.55Q66.74 3.20 66.32 4.06L66.32 4.06L66.32 4.06Q65.39 5.91 65.11 8.21L65.11 8.21L65.11 8.21Q65.00 9.15 64.98 9.80L64.98 9.80L64.98 9.80Q64.96 10.74 65.39 11.05L65.39 11.05L65.39 11.05Q65.85 11.39 66.99 11.00L66.99 11.00L66.99 11.00Q67.63 10.77 68.23 10.19L68.23 10.19L68.23 10.19Q68.74 9.71 69.06 8.87L69.06 8.87L69.06 8.87Q69.20 8.48 69.26 8.11L69.26 8.11L69.26 8.11Q69.32 7.72 69.21 7.57L69.21 7.57L69.21 7.57Q69.04 7.29 68.37 7.43L68.37 7.43L68.37 7.43Q67.64 7.58 67.03 8.07L67.03 8.07L67.03 8.07Q66.85 8.21 67.05 8.27L67.05 8.27L67.05 8.27Q67.20 8.31 67.37 8.30L67.37 8.30L67.37 8.30Q67.60 8.28 67.83 8.21L67.83 8.21L67.83 8.21Q67.84 8.48 67.65 9.04L67.65 9.04L67.65 9.04Q67.46 9.59 67.20 9.99L67.20 9.99L67.20 9.99Q67.15 10.06 67.12 10.08L67.12 10.08L67.12 10.08Q67.01 10.21 66.92 10.31L66.92 10.31L66.92 10.31Q66.83 10.40 66.70 10.51L66.70 10.51L66.70 10.51Q66.65 10.45 66.60 10.36L66.60 10.36L66.60 10.36Q66.47 10.13 66.45 9.65L66.45 9.65L66.45 9.65Q66.43 9.36 66.53 8.16L66.53 8.16L66.53 8.16Q66.73 5.98 67.68 3.95L67.68 3.95L67.68 3.95Q68.20 2.84 68.68 2.21L68.68 2.21L68.68 2.21Q68.80 2.51 68.81 2.81L68.81 2.81L68.81 2.81Q68.82 3.19 68.63 3.34L68.63 3.34L68.63 3.34Q68.46 3.47 68.67 3.53L68.67 3.53L68.67 3.53Q68.82 3.58 68.97 3.57L68.97 3.57L68.97 3.57Q69.58 3.51 69.95 3.22L69.95 3.22L69.95 3.22Q70.26 2.98 70.26 2.48L70.26 2.48L70.26 2.48Q70.26 2.06 70.07 1.67L70.07 1.67ZM78.07 2.53L78.07 2.53Q77.83 3.62 77.21 6.79L77.21 6.79L77.21 6.79Q76.97 8.03 76.78 8.93L76.78 8.93L76.78 8.93Q76.39 10.78 76.38 10.91L76.38 10.91L76.38 10.91Q76.38 10.99 76.61 11.00L76.61 11.00L76.61 11.00Q76.83 11.01 77.11 10.96L77.11 10.96L77.11 10.96Q77.84 10.81 77.85 10.52L77.85 10.52L77.85 10.52Q77.85 10.23 78.01 9.62L78.01 9.62L78.01 9.62Q78.09 9.32 78.24 8.57L78.24 8.57L78.24 8.57Q78.42 7.77 78.67 6.44L78.67 6.44L78.67 6.44Q79.27 3.36 79.52 2.27L79.52 2.27L79.52 2.27Q79.57 2.02 78.93 2.13L78.93 2.13L78.93 2.13Q78.63 2.19 78.37 2.31L78.37 2.31L78.37 2.31Q78.09 2.44 78.07 2.53L78.07 2.53ZM91.01 2.35L91.01 2.35Q90.06 2.17 89.05 2.15L89.05 2.15L89.05 2.15Q88.96 2.03 88.48 2.11L88.48 2.11L88.48 2.11Q88.38 2.13 88.27 2.16L88.27 2.16L88.27 2.16Q87.20 2.22 86.16 2.46L86.16 2.46L86.16 2.46Q85.42 2.63 85.49 2.88L85.49 2.88L85.49 2.88Q85.54 3.08 86.26 2.91L86.26 2.91L86.26 2.91Q86.27 2.91 86.28 2.90L86.28 2.90L86.28 2.90Q86.30 2.90 86.31 2.89L86.31 2.89L86.31 2.89Q86.39 2.88 86.54 2.85L86.54 2.85L86.54 2.85Q86.71 2.82 86.93 2.80L86.93 2.80L86.93 2.80Q87.22 2.76 87.55 2.75L87.55 2.75L87.55 2.75Q86.13 7.40 85.74 10.96L85.74 10.96L85.74 10.96Q85.73 11.02 85.96 11.03L85.96 11.03L85.96 11.03Q86.17 11.04 86.45 10.99L86.45 10.99L86.45 10.99Q87.17 10.86 87.20 10.56L87.20 10.56L87.20 10.56Q87.58 7.19 88.89 2.78L88.89 2.78L88.89 2.78Q89.37 2.82 89.80 2.91L89.80 2.91L89.80 2.91Q90.24 2.99 90.83 2.72L90.83 2.72L90.83 2.72Q90.99 2.65 91.08 2.54L91.08 2.54L91.08 2.54Q91.23 2.39 91.01 2.35L91.01 2.35ZM99.59 7.89L99.59 7.89Q99.48 7.90 98.58 7.84L98.58 7.84L98.58 7.84Q98.99 6.63 99.45 5.57L99.45 5.57L99.45 5.57Q99.61 5.18 100.16 3.95L100.16 3.95L100.16 3.95Q100.14 4.61 99.96 7.85L99.96 7.85L99.96 7.85Q99.78 7.87 99.59 7.89L99.59 7.89ZM101.40 1.18L101.40 1.18Q101.21 1.09 100.83 1.16L100.83 1.16L100.83 1.16Q100.19 1.27 99.98 1.55L99.98 1.55L99.98 1.55Q99.78 1.80 99.00 3.58L99.00 3.58L99.00 3.58Q98.86 3.90 98.50 4.70L98.50 4.70L98.50 4.70Q98.18 5.42 98.01 5.83L98.01 5.83L98.01 5.83Q97.59 6.79 97.21 7.86L97.21 7.86L97.21 7.86Q96.29 7.97 95.64 8.37L95.64 8.37L95.64 8.37Q95.46 8.48 95.49 8.58L95.49 8.58L95.49 8.58Q95.52 8.67 95.72 8.68L95.72 8.68L95.72 8.68Q96.24 8.70 96.71 8.43L96.71 8.43L96.71 8.43Q96.86 8.41 96.91 8.41L96.91 8.41L96.91 8.41Q96.97 8.41 97.03 8.41L97.03 8.41L97.03 8.41Q96.71 9.39 96.39 10.53L96.39 10.53L96.39 10.53Q96.32 10.79 96.97 10.67L96.97 10.67L96.97 10.67Q97.28 10.62 97.53 10.49L97.53 10.49L97.53 10.49Q97.80 10.37 97.83 10.27L97.83 10.27L97.83 10.27Q98.10 9.32 98.37 8.48L98.37 8.48L98.37 8.48Q98.66 8.50 98.86 8.47L98.86 8.47L98.86 8.47Q99.57 8.39 99.92 8.46L99.92 8.46L99.92 8.46Q99.81 10.55 99.81 12.02L99.81 12.02L99.81 12.02Q99.81 12.10 100.04 12.11L100.04 12.11L100.04 12.11Q100.26 12.12 100.54 12.06L100.54 12.06L100.54 12.06Q101.27 11.91 101.27 11.62L101.27 11.62L101.27 11.62Q101.27 9.90 101.48 6.45L101.48 6.45L101.48 6.45Q101.68 3.00 101.68 1.27L101.68 1.27L101.68 1.27Q101.68 1.18 101.40 1.18L101.40 1.18ZM111.53 11.33L111.53 11.33Q110.49 11.36 110.04 11.16L110.04 11.16L110.04 11.16Q110.90 6.57 112.01 2.08L112.01 2.08L112.01 2.08Q112.08 1.83 111.43 1.95L111.43 1.95L111.43 1.95Q111.13 2.00 110.88 2.12L110.88 2.12L110.88 2.12Q110.60 2.25 110.58 2.34L110.58 2.34L110.58 2.34Q109.46 6.83 108.60 11.47L108.60 11.47L108.60 11.47Q108.51 11.56 108.58 11.61L108.58 11.61L108.58 11.61Q108.58 11.63 108.57 11.70L108.57 11.70L108.57 11.70Q108.56 11.74 108.55 11.78L108.55 11.78L108.55 11.78Q108.53 11.94 109.18 11.83L109.18 11.83L109.18 11.83Q109.67 11.95 110.58 11.92L110.58 11.92L110.58 11.92Q111.19 11.91 111.61 11.65L111.61 11.65L111.61 11.65Q111.79 11.54 111.77 11.44L111.77 11.44L111.77 11.44Q111.74 11.33 111.53 11.33L111.53 11.33ZM136.13 2.21L136.13 2.21Q136.09 2.05 135.54 2.15L135.54 2.15L135.54 2.15Q134.84 2.28 134.67 2.54L134.67 2.54L134.67 2.54Q133.80 4.03 132.86 6.51L132.86 6.51L132.86 6.41L132.86 6.41Q132.86 5.55 132.70 2.12L132.70 2.12L132.70 2.12Q132.69 2.03 132.46 2.02L132.46 2.02L132.46 2.02Q132.32 1.92 131.90 2.00L131.90 2.00L131.90 2.00Q131.19 2.13 131.04 2.39L131.04 2.39L131.04 2.39Q128.91 6.30 128.30 11.14L128.30 11.14L128.30 11.14Q128.29 11.27 128.67 11.23L128.67 11.23L128.67 11.23Q128.92 11.21 129.10 11.16L129.10 11.16L129.10 11.16Q129.74 10.99 129.77 10.75L129.77 10.75L129.77 10.75Q130.17 7.51 131.34 4.58L131.34 4.58L131.34 4.58Q131.39 5.81 131.40 6.71L131.40 6.71L131.40 6.71Q131.41 8.26 131.33 8.86L131.33 8.86L131.33 8.86Q131.14 10.15 131.13 10.99L131.13 10.99L131.13 10.99Q131.13 11.20 131.82 11.03L131.82 11.03L131.82 11.03Q132.49 10.86 132.58 10.66L132.58 10.66L132.58 10.66Q133.06 9.61 133.78 7.67L133.78 7.67L133.78 7.67Q134.57 5.54 134.93 4.66L134.93 4.66L134.93 4.66Q134.98 5.91 134.74 7.85L134.74 7.85L134.74 7.85Q134.40 10.57 134.37 11.04L134.37 11.04L134.37 11.04Q134.36 11.12 134.58 11.12L134.58 11.12L134.58 11.12Q134.80 11.13 135.08 11.08L135.08 11.08L135.08 11.08Q135.80 10.94 135.83 10.65L135.83 10.65L135.83 10.65Q135.88 9.88 136.06 8.54L136.06 8.54L136.06 8.54Q136.25 7.03 136.32 6.43L136.32 6.43L136.32 6.43Q136.55 3.95 136.13 2.21L136.13 2.21ZM144.88 2.53L144.88 2.53Q144.63 3.62 144.02 6.79L144.02 6.79L144.02 6.79Q143.78 8.03 143.59 8.93L143.59 8.93L143.59 8.93Q143.20 10.78 143.19 10.91L143.19 10.91L143.19 10.91Q143.19 10.99 143.42 11.00L143.42 11.00L143.42 11.00Q143.64 11.01 143.92 10.96L143.92 10.96L143.92 10.96Q144.65 10.81 144.66 10.52L144.66 10.52L144.66 10.52Q144.66 10.23 144.82 9.62L144.82 9.62L144.82 9.62Q144.89 9.32 145.05 8.57L145.05 8.57L145.05 8.57Q145.22 7.77 145.48 6.44L145.48 6.44L145.48 6.44Q146.08 3.36 146.32 2.27L146.32 2.27L146.32 2.27Q146.38 2.02 145.74 2.13L145.74 2.13L145.74 2.13Q145.43 2.19 145.18 2.31L145.18 2.31L145.18 2.31Q144.90 2.44 144.88 2.53L144.88 2.53ZM156.10 7.83L156.10 7.83L156.10 7.83Q156.11 7.83 156.14 7.81L156.14 7.81L156.14 7.81Q156.11 7.83 156.10 7.83L156.10 7.83ZM157.66 1.67L157.66 1.67Q157.28 0.90 155.93 1.50L155.93 1.50L155.93 1.50Q155.36 1.75 154.79 2.55L154.79 2.55L154.79 2.55Q154.33 3.20 153.90 4.06L153.90 4.06L153.90 4.06Q152.98 5.91 152.70 8.21L152.70 8.21L152.70 8.21Q152.58 9.15 152.57 9.80L152.57 9.80L152.57 9.80Q152.55 10.74 152.98 11.05L152.98 11.05L152.98 11.05Q153.44 11.39 154.57 11.00L154.57 11.00L154.57 11.00Q155.22 10.77 155.82 10.19L155.82 10.19L155.82 10.19Q156.33 9.71 156.65 8.87L156.65 8.87L156.65 8.87Q156.79 8.48 156.85 8.11L156.85 8.11L156.85 8.11Q156.91 7.72 156.80 7.57L156.80 7.57L156.80 7.57Q156.63 7.29 155.96 7.43L155.96 7.43L155.96 7.43Q155.23 7.58 154.62 8.07L154.62 8.07L154.62 8.07Q154.44 8.21 154.64 8.27L154.64 8.27L154.64 8.27Q154.79 8.31 154.96 8.30L154.96 8.30L154.96 8.30Q155.19 8.28 155.42 8.21L155.42 8.21L155.42 8.21Q155.43 8.48 155.24 9.04L155.24 9.04L155.24 9.04Q155.05 9.59 154.79 9.99L154.79 9.99L154.79 9.99Q154.74 10.06 154.71 10.08L154.71 10.08L154.71 10.08Q154.60 10.21 154.51 10.31L154.51 10.31L154.51 10.31Q154.42 10.40 154.29 10.51L154.29 10.51L154.29 10.51Q154.24 10.45 154.18 10.36L154.18 10.36L154.18 10.36Q154.06 10.13 154.03 9.65L154.03 9.65L154.03 9.65Q154.02 9.36 154.12 8.16L154.12 8.16L154.12 8.16Q154.31 5.98 155.26 3.95L155.26 3.95L155.26 3.95Q155.79 2.84 156.27 2.21L156.27 2.21L156.27 2.21Q156.39 2.51 156.40 2.81L156.40 2.81L156.40 2.81Q156.41 3.19 156.22 3.34L156.22 3.34L156.22 3.34Q156.05 3.47 156.26 3.53L156.26 3.53L156.26 3.53Q156.41 3.58 156.56 3.57L156.56 3.57L156.56 3.57Q157.17 3.51 157.54 3.22L157.54 3.22L157.54 3.22Q157.85 2.98 157.85 2.48L157.85 2.48L157.85 2.48Q157.85 2.06 157.66 1.67L157.66 1.67ZM168.20 5.31L168.20 5.31Q168.05 6.24 167.15 7.18L167.15 7.18L167.15 7.18Q166.96 7.38 166.72 7.58L166.72 7.58L166.72 7.58Q166.66 7.63 166.60 7.68L166.60 7.68L166.60 7.68Q166.38 7.59 166.13 7.58L166.13 7.58L166.13 7.58Q166.69 4.74 166.83 2.66L166.83 2.66L166.83 2.66Q167.10 2.80 167.34 2.99L167.34 2.99L167.34 2.99Q167.85 3.39 168.08 4.03L168.08 4.03L168.08 4.03Q168.31 4.65 168.20 5.31L168.20 5.31ZM165.22 2.40L165.22 2.40Q165.22 2.40 165.24 2.39L165.24 2.39L165.24 2.39Q165.23 2.40 165.22 2.40L165.22 2.40ZM170.16 11.42L170.16 11.42Q169.43 10.88 167.90 8.99L167.90 8.99L167.90 8.99Q167.23 8.17 167.11 8.05L167.11 8.05L167.11 8.05Q167.57 7.84 168 7.50L168 7.50L168 7.50Q169.20 6.56 169.56 5.41L169.56 5.41L169.56 5.41Q169.80 4.60 169.60 3.84L169.60 3.84L169.60 3.84Q169.39 3.07 168.77 2.53L168.77 2.53L168.77 2.53Q167.52 1.46 165.45 1.88L165.45 1.88L165.45 1.88Q165.32 1.91 165.12 1.96L165.12 1.96L165.12 1.96Q164.38 2.14 164.45 2.37L164.45 2.37L164.45 2.37Q164.51 2.58 165.22 2.40L165.22 2.40L165.22 2.40Q165.29 2.39 165.33 2.38L165.33 2.38L165.33 2.38Q165.38 2.37 165.41 2.37L165.41 2.37L165.41 2.37Q165.29 5.11 164.06 10.79L164.06 10.79L164.06 10.79Q164.00 11.04 164.64 10.92L164.64 10.92L164.64 10.92Q164.94 10.87 165.20 10.75L165.20 10.75L165.20 10.75Q165.48 10.62 165.50 10.53L165.50 10.53L165.50 10.53Q165.79 9.17 165.89 8.72L165.89 8.72L165.89 8.72Q165.89 8.72 165.89 8.72L165.89 8.72L165.89 8.72Q165.90 8.72 165.90 8.72L165.90 8.72L165.90 8.72Q166.01 8.85 166.69 9.70L166.69 9.70L166.69 9.70Q168.01 11.34 168.78 11.92L168.78 11.92L168.78 11.92Q169.00 12.09 169.72 11.83L169.72 11.83L169.72 11.83Q169.91 11.76 170.05 11.67L170.05 11.67L170.05 11.67Q170.30 11.52 170.16 11.42L170.16 11.42ZM179.41 7.89L179.41 7.89Q179.31 7.90 178.40 7.84L178.40 7.84L178.40 7.84Q178.81 6.63 179.27 5.57L179.27 5.57L179.27 5.57Q179.44 5.18 179.98 3.95L179.98 3.95L179.98 3.95Q179.96 4.61 179.78 7.85L179.78 7.85L179.78 7.85Q179.61 7.87 179.41 7.89L179.41 7.89ZM181.22 1.18L181.22 1.18Q181.04 1.09 180.65 1.16L180.65 1.16L180.65 1.16Q180.01 1.27 179.80 1.55L179.80 1.55L179.80 1.55Q179.60 1.80 178.82 3.58L178.82 3.58L178.82 3.58Q178.68 3.90 178.32 4.70L178.32 4.70L178.32 4.70Q178.01 5.42 177.83 5.83L177.83 5.83L177.83 5.83Q177.41 6.79 177.04 7.86L177.04 7.86L177.04 7.86Q176.11 7.97 175.46 8.37L175.46 8.37L175.46 8.37Q175.29 8.48 175.31 8.58L175.31 8.58L175.31 8.58Q175.34 8.67 175.55 8.68L175.55 8.68L175.55 8.68Q176.07 8.70 176.54 8.43L176.54 8.43L176.54 8.43Q176.68 8.41 176.73 8.41L176.73 8.41L176.73 8.41Q176.79 8.41 176.85 8.41L176.85 8.41L176.85 8.41Q176.53 9.39 176.21 10.53L176.21 10.53L176.21 10.53Q176.14 10.79 176.80 10.67L176.80 10.67L176.80 10.67Q177.10 10.62 177.35 10.49L177.35 10.49L177.35 10.49Q177.63 10.37 177.65 10.27L177.65 10.27L177.65 10.27Q177.92 9.32 178.19 8.48L178.19 8.48L178.19 8.48Q178.49 8.50 178.68 8.47L178.68 8.47L178.68 8.47Q179.39 8.39 179.74 8.46L179.74 8.46L179.74 8.46Q179.63 10.55 179.63 12.02L179.63 12.02L179.63 12.02Q179.63 12.10 179.86 12.11L179.86 12.11L179.86 12.11Q180.08 12.12 180.37 12.06L180.37 12.06L180.37 12.06Q181.10 11.91 181.10 11.62L181.10 11.62L181.10 11.62Q181.10 9.90 181.30 6.45L181.30 6.45L181.30 6.45Q181.50 3.00 181.50 1.27L181.50 1.27L181.50 1.27Q181.50 1.18 181.22 1.18L181.22 1.18ZM193.76 2.35L193.76 2.35Q192.81 2.17 191.80 2.15L191.80 2.15L191.80 2.15Q191.71 2.03 191.23 2.11L191.23 2.11L191.23 2.11Q191.13 2.13 191.02 2.16L191.02 2.16L191.02 2.16Q189.95 2.22 188.91 2.46L188.91 2.46L188.91 2.46Q188.17 2.63 188.24 2.88L188.24 2.88L188.24 2.88Q188.29 3.08 189.01 2.91L189.01 2.91L189.01 2.91Q189.02 2.91 189.03 2.90L189.03 2.90L189.03 2.90Q189.05 2.90 189.06 2.89L189.06 2.89L189.06 2.89Q189.14 2.88 189.29 2.85L189.29 2.85L189.29 2.85Q189.46 2.82 189.68 2.80L189.68 2.80L189.68 2.80Q189.97 2.76 190.30 2.75L190.30 2.75L190.30 2.75Q188.88 7.40 188.49 10.96L188.49 10.96L188.49 10.96Q188.48 11.02 188.71 11.03L188.71 11.03L188.71 11.03Q188.92 11.04 189.20 10.99L189.20 10.99L189.20 10.99Q189.92 10.86 189.95 10.56L189.95 10.56L189.95 10.56Q190.33 7.19 191.65 2.78L191.65 2.78L191.65 2.78Q192.12 2.82 192.55 2.91L192.55 2.91L192.55 2.91Q192.99 2.99 193.58 2.72L193.58 2.72L193.58 2.72Q193.74 2.65 193.83 2.54L193.83 2.54L193.83 2.54Q193.98 2.39 193.76 2.35L193.76 2.35ZM200.88 2.53L200.88 2.53Q200.63 3.62 200.02 6.79L200.02 6.79L200.02 6.79Q199.78 8.03 199.59 8.93L199.59 8.93L199.59 8.93Q199.20 10.78 199.19 10.91L199.19 10.91L199.19 10.91Q199.19 10.99 199.42 11.00L199.42 11.00L199.42 11.00Q199.64 11.01 199.92 10.96L199.92 10.96L199.92 10.96Q200.65 10.81 200.66 10.52L200.66 10.52L200.66 10.52Q200.66 10.23 200.82 9.62L200.82 9.62L200.82 9.62Q200.89 9.32 201.05 8.57L201.05 8.57L201.05 8.57Q201.22 7.77 201.48 6.44L201.48 6.44L201.48 6.44Q202.08 3.36 202.32 2.27L202.32 2.27L202.32 2.27Q202.38 2.02 201.74 2.13L201.74 2.13L201.74 2.13Q201.43 2.19 201.18 2.31L201.18 2.31L201.18 2.31Q200.90 2.44 200.88 2.53L200.88 2.53ZM212.20 5.20L212.20 5.20Q212.08 6.64 211.81 7.92L211.81 7.92L211.81 7.92Q211.40 9.88 210.63 10.64L210.63 10.64L210.63 10.64Q210.54 10.55 210.46 10.38L210.46 10.38L210.46 10.38Q210.28 9.97 210.29 9.03L210.29 9.03L210.29 9.03Q210.32 7.34 210.90 5.48L210.90 5.48L210.90 5.48Q211.39 3.85 212.09 3.01L212.09 3.01L212.09 3.01Q212.17 3.25 212.21 3.62L212.21 3.62L212.21 3.62Q212.28 4.21 212.20 5.20L212.20 5.20ZM213.13 1.96L213.13 1.96Q212.93 1.79 212.19 2.05L212.19 2.05L212.19 2.05Q211.69 2.24 211.71 2.39L211.71 2.39L211.71 2.39Q211.46 2.48 211.28 2.63L211.28 2.63L211.28 2.63Q210.29 3.40 209.63 5.22L209.63 5.22L209.63 5.22Q209.08 6.70 208.89 8.50L208.89 8.50L208.89 8.50Q208.81 9.28 208.84 9.92L208.84 9.92L208.84 9.92Q208.88 10.77 209.24 11.13L209.24 11.13L209.24 11.13Q209.43 11.31 209.86 11.33L209.86 11.33L209.86 11.33Q210.40 11.36 211.22 11.02L211.22 11.02L211.22 11.02Q211.91 10.74 212.43 9.94L212.43 9.94L212.43 9.94Q212.90 9.21 213.21 7.85L213.21 7.85L213.21 7.85Q213.42 6.94 213.55 5.84L213.55 5.84L213.55 5.84Q213.71 4.44 213.71 3.78L213.71 3.78L213.71 3.78Q213.70 2.45 213.13 1.96L213.13 1.96ZM226.48 0.74L226.48 0.74Q226.17 0.79 225.92 0.91L225.92 0.91L225.92 0.91Q225.65 1.04 225.62 1.13L225.62 1.13L225.62 1.13Q224.74 3.96 224.12 7.39L224.12 7.39L224.12 7.39Q224.03 6.88 223.92 6.21L223.92 6.21L223.92 6.21Q223.62 4.44 223.58 4.05L223.58 4.05L223.58 4.05Q223.43 2.77 223.23 2.37L223.23 2.37L223.23 2.37Q223.23 2.37 223.22 2.35L223.22 2.35L223.23 2.34L223.23 2.34Q223.23 2.34 223.23 2.33L223.23 2.33L223.23 2.33Q223.27 2.08 222.64 2.20L222.64 2.20L222.64 2.20Q222.34 2.26 222.09 2.37L222.09 2.37L222.09 2.37Q221.80 2.51 221.79 2.60L221.79 2.60L221.79 2.60Q221.60 3.71 220.96 6.73L220.96 6.73L220.96 6.73Q220.41 9.34 220.21 10.89L220.21 10.89L220.21 10.89Q220.19 11.01 220.58 10.98L220.58 10.98L220.58 10.98Q220.83 10.96 221.00 10.91L221.00 10.91L221.00 10.91Q221.64 10.74 221.67 10.50L221.67 10.50L221.67 10.50Q221.87 8.97 222.42 6.38L222.42 6.38L222.42 6.38Q222.45 6.54 222.46 6.61L222.46 6.61L222.46 6.61Q222.67 7.90 222.85 8.95L222.85 8.95L222.85 8.95Q223.11 10.45 223.34 11.09L223.34 11.09L223.34 11.09Q223.39 11.24 223.73 11.21L223.73 11.21L223.73 11.21Q224.05 11.18 224.38 11.05L224.38 11.05L224.38 11.05Q224.97 10.89 225.00 10.65L225.00 10.65L225.00 10.65Q225.78 5.00 227.06 0.87L227.06 0.87L227.06 0.87Q227.14 0.62 226.48 0.74L226.48 0.74Z"></path></g></svg>