<svg data-v-fde0c5aa="" xmlns="http://www.w3.org/2000/svg" viewBox="0 0 300 300" class="font"><!----><defs data-v-fde0c5aa=""><!----></defs><rect data-v-fde0c5aa="" fill="transparent" x="0" y="0" width="300px" height="300px" class="logo-background-square"></rect><defs data-v-fde0c5aa=""><linearGradient data-v-fde0c5aa="" gradientTransform="rotate(25)" id="fafebbd4-e6ca-47a6-baa9-1c83301a2689" x1="0%" y1="0%" x2="100%" y2="0%"><stop data-v-fde0c5aa="" offset="0%" stop-color="#D0A070" stop-opacity="1"></stop><stop data-v-fde0c5aa="" offset="100%" stop-color="#6BE371" stop-opacity="1"></stop></linearGradient></defs><g data-v-fde0c5aa="" id="146ee8ed-a3b0-4df4-90f8-de1b905fd7a6" fill="url(#fafebbd4-e6ca-47a6-baa9-1c83301a2689)" transform="matrix(4.408817837494653,0,0,4.408817837494653,43.13026057001825,104.0601188480837)"><path d="M9.50 4.90L9.50 4.90L9.50 4.90Q9.58 5.02 9.65 5.14L9.65 5.14L9.65 5.14Q9.71 5.26 9.74 5.42L9.74 5.42L9.74 5.42Q9.78 5.58 9.79 5.78L9.79 5.78L9.79 5.78Q9.81 5.98 9.80 6.25L9.80 6.25L9.80 6.25Q9.78 7.13 9.57 8.06L9.57 8.06L9.57 8.06Q9.37 8.99 9.00 9.88L9.00 9.88L9.00 9.88Q8.62 10.77 8.08 11.58L8.08 11.58L8.08 11.58Q7.54 12.40 6.84 13.07L6.84 13.07L6.84 13.07Q6.15 13.73 5.29 14.21L5.29 14.21L5.29 14.21Q4.44 14.68 3.45 14.90L3.45 14.90L3.45 14.90Q3.12 14.69 2.88 14.50L2.88 14.50L2.88 14.50Q2.65 14.31 2.47 14.15L2.47 14.15L2.47 14.15Q2.30 13.99 2.20 13.87L2.20 13.87L2.20 13.87Q2.09 13.75 2.04 13.69L2.04 13.69L2.04 13.69Q1.68 14.22 1.33 14.53L1.33 14.53L1.33 14.53Q0.97 14.84 0.63 14.84L0.63 14.84L0.63 14.84Q0.46 14.84 0.30 14.75L0.30 14.75L0.30 14.75Q0.14 14.66-0.01 14.51L-0.01 14.51L-0.01 14.51Q-0.16 14.37-0.29 14.19L-0.29 14.19L-0.29 14.19Q-0.42 14.01-0.51 13.85L-0.51 13.85L-0.51 13.85Q-0.60 13.69-0.66 13.55L-0.66 13.55L-0.66 13.55Q-0.71 13.41-0.71 13.34L-0.71 13.34L-0.71 13.34Q-0.71 12.92-0.58 12.39L-0.58 12.39L-0.58 12.39Q-0.44 11.87-0.21 11.28L-0.21 11.28L-0.21 11.28Q0.03 10.69 0.37 10.06L0.37 10.06L0.37 10.06Q0.70 9.43 1.11 8.80L1.11 8.80L1.11 8.80Q1.52 8.17 1.99 7.55L1.99 7.55L1.99 7.55Q2.46 6.93 2.97 6.36L2.97 6.36L2.97 6.36Q3.16 5.42 3.28 4.50L3.28 4.50L3.28 4.50Q3.40 3.58 3.43 2.73L3.43 2.73L3.43 2.73Q3.82 2.97 4.14 3.21L4.14 3.21L4.14 3.21Q4.46 3.45 4.68 3.65L4.68 3.65L4.68 3.65Q4.95 3.88 5.15 4.09L5.15 4.09L5.13 4.40L5.13 4.40Q5.78 3.93 6.41 3.67L6.41 3.67L6.41 3.67Q7.04 3.40 7.62 3.40L7.62 3.40L7.62 3.40Q7.90 3.40 8.16 3.56L8.16 3.56L8.16 3.56Q8.42 3.71 8.66 3.94L8.66 3.94L8.66 3.94Q8.91 4.16 9.12 4.43L9.12 4.43L9.12 4.43Q9.32 4.69 9.50 4.90ZM4.83 6.23L4.83 6.23L4.83 6.23Q4.70 6.84 4.53 7.50L4.53 7.50L4.53 7.50Q4.35 8.17 4.14 8.84L4.14 8.84L4.14 8.84Q3.93 9.52 3.69 10.19L3.69 10.19L3.69 10.19Q3.45 10.86 3.19 11.47L3.19 11.47L3.19 11.47Q2.93 12.09 2.65 12.63L2.65 12.63L2.65 12.63Q2.37 13.18 2.09 13.61L2.09 13.61L2.09 13.61Q2.95 13.48 3.68 13.15L3.68 13.15L3.68 13.15Q4.42 12.82 5.03 12.34L5.03 12.34L5.03 12.34Q5.65 11.85 6.15 11.26L6.15 11.26L6.15 11.26Q6.65 10.66 7.04 10.00L7.04 10.00L7.04 10.00Q7.43 9.34 7.72 8.66L7.72 8.66L7.72 8.66Q8.01 7.97 8.20 7.32L8.20 7.32L8.20 7.32Q8.38 6.67 8.47 6.07L8.47 6.07L8.47 6.07Q8.57 5.48 8.57 5.00L8.57 5.00L8.57 5.00Q8.57 4.85 8.53 4.70L8.53 4.70L8.53 4.70Q8.49 4.55 8.42 4.43L8.42 4.43L8.42 4.43Q8.34 4.31 8.23 4.23L8.23 4.23L8.23 4.23Q8.11 4.16 7.96 4.16L7.96 4.16L7.96 4.16Q7.68 4.16 7.32 4.31L7.32 4.31L7.32 4.31Q6.97 4.46 6.56 4.74L6.56 4.74L6.56 4.74Q6.16 5.02 5.72 5.40L5.72 5.40L5.72 5.40Q5.28 5.78 4.83 6.23ZM0.33 13.56L0.33 13.56L0.33 13.56Q0.46 13.62 0.68 13.31L0.68 13.31L0.68 13.31Q0.89 13.00 1.15 12.43L1.15 12.43L1.15 12.43Q1.41 11.85 1.69 11.05L1.69 11.05L1.69 11.05Q1.98 10.25 2.25 9.31L2.25 9.31L2.25 9.31Q1.81 9.92 1.44 10.50L1.44 10.50L1.44 10.50Q1.07 11.08 0.81 11.60L0.81 11.60L0.81 11.60Q0.54 12.11 0.39 12.54L0.39 12.54L0.39 12.54Q0.24 12.97 0.24 13.26L0.24 13.26L0.24 13.26Q0.24 13.49 0.33 13.56ZM9.80 14.05L9.80 14.05L9.80 14.05Q9.69 14.05 9.54 13.98L9.54 13.98L9.54 13.98Q9.38 13.91 9.24 13.81L9.24 13.81L9.24 13.81Q9.09 13.70 8.99 13.57L8.99 13.57L8.99 13.57Q8.89 13.44 8.89 13.32L8.89 13.32L8.89 13.32Q8.96 13.02 9.07 12.63L9.07 12.63L9.07 12.63Q9.19 12.24 9.32 11.83L9.32 11.83L9.32 11.83Q9.45 11.43 9.60 11.04L9.60 11.04L9.60 11.04Q9.75 10.66 9.87 10.36L9.87 10.36L9.87 10.36Q9.99 10.06 10.08 9.87L10.08 9.87L10.08 9.87Q10.17 9.69 10.19 9.69L10.19 9.69L10.19 9.69Q10.23 9.69 10.40 9.78L10.40 9.78L10.40 9.78Q10.56 9.86 10.74 9.99L10.74 9.99L10.74 9.99Q10.92 10.12 11.07 10.26L11.07 10.26L11.07 10.26Q11.21 10.40 11.21 10.50L11.21 10.50L11.21 10.50Q11.21 10.52 11.20 10.55L11.20 10.55L11.20 10.55Q11.20 10.58 11.18 10.63L11.18 10.63L11.18 10.63Q11.13 10.80 11.04 11.03L11.04 11.03L11.04 11.03Q10.96 11.27 10.86 11.52L10.86 11.52L10.86 11.52Q10.77 11.76 10.67 12.01L10.67 12.01L10.67 12.01Q10.58 12.26 10.50 12.48L10.50 12.48L10.50 12.48Q10.42 12.70 10.38 12.87L10.38 12.87L10.38 12.87Q10.33 13.03 10.33 13.10L10.33 13.10L10.33 13.10Q10.33 13.15 10.37 13.15L10.37 13.15L10.37 13.15Q10.45 13.15 10.60 13.06L10.60 13.06L10.60 13.06Q10.75 12.97 10.94 12.82L10.94 12.82L10.94 12.82Q11.14 12.68 11.35 12.51L11.35 12.51L11.35 12.51Q11.56 12.34 11.75 12.17L11.75 12.17L11.75 12.17Q11.95 12.00 12.11 11.87L12.11 11.87L12.11 11.87Q12.26 11.73 12.35 11.66L12.35 11.66L12.35 11.66Q12.41 11.72 12.49 11.82L12.49 11.82L12.49 11.82Q12.58 11.92 12.65 12.00L12.65 12.00L12.65 12.00Q12.50 12.15 12.28 12.36L12.28 12.36L12.28 12.36Q12.05 12.58 11.79 12.80L11.79 12.80L11.79 12.80Q11.53 13.03 11.24 13.25L11.24 13.25L11.24 13.25Q10.96 13.48 10.69 13.66L10.69 13.66L10.69 13.66Q10.42 13.84 10.19 13.95L10.19 13.95L10.19 13.95Q9.96 14.05 9.80 14.05ZM12.50 7.60L12.50 7.60L12.50 7.60Q12.50 7.63 12.45 7.73L12.45 7.73L12.45 7.73Q12.41 7.84 12.35 7.98L12.35 7.98L12.35 7.98Q12.28 8.12 12.21 8.27L12.21 8.27L12.21 8.27Q12.13 8.43 12.05 8.56L12.05 8.56L12.05 8.56Q11.98 8.69 11.91 8.77L11.91 8.77L11.91 8.77Q11.84 8.86 11.80 8.86L11.80 8.86L11.80 8.86Q11.68 8.85 11.50 8.78L11.50 8.78L11.50 8.78Q11.33 8.72 11.17 8.63L11.17 8.63L11.17 8.63Q11.01 8.54 10.89 8.46L10.89 8.46L10.89 8.46Q10.78 8.38 10.78 8.35L10.78 8.35L10.78 8.35Q10.78 8.20 10.86 7.97L10.86 7.97L10.86 7.97Q10.94 7.75 11.05 7.53L11.05 7.53L11.05 7.53Q11.16 7.31 11.28 7.16L11.28 7.16L11.28 7.16Q11.39 7 11.45 7L11.45 7L11.45 7Q11.57 7 11.75 7.08L11.75 7.08L11.75 7.08Q11.93 7.16 12.10 7.26L12.10 7.26L12.10 7.26Q12.26 7.36 12.38 7.46L12.38 7.46L12.38 7.46Q12.50 7.56 12.50 7.60ZM17.64 11.63L17.94 12.00L17.94 12.00Q17.36 12.60 16.77 13.10L16.77 13.10L16.77 13.10Q16.17 13.60 15.59 14.04L15.59 14.04L15.59 14.04Q15.48 14.36 15.36 14.68L15.36 14.68L15.36 14.68Q15.23 15.00 15.09 15.33L15.09 15.33L15.09 15.33Q14.90 15.78 14.63 16.20L14.63 16.20L14.63 16.20Q14.37 16.61 14.08 16.96L14.08 16.96L14.08 16.96Q13.78 17.32 13.47 17.60L13.47 17.60L13.47 17.60Q13.17 17.88 12.88 18.08L12.88 18.08L12.88 18.08Q12.60 18.28 12.36 18.39L12.36 18.39L12.36 18.39Q12.11 18.50 11.94 18.50L11.94 18.50L11.94 18.50Q11.83 18.50 11.67 18.40L11.67 18.40L11.67 18.40Q11.51 18.29 11.37 18.14L11.37 18.14L11.37 18.14Q11.23 17.99 11.13 17.80L11.13 17.80L11.13 17.80Q11.03 17.62 11.03 17.46L11.03 17.46L11.03 17.46Q11.03 17.10 11.28 16.76L11.28 16.76L11.28 16.76Q11.52 16.42 11.95 16.06L11.95 16.06L11.95 16.06Q12.37 15.70 12.95 15.30L12.95 15.30L12.95 15.30Q13.52 14.90 14.19 14.43L14.19 14.43L14.19 14.43Q14.34 14.04 14.53 13.50L14.53 13.50L14.53 13.50Q14.72 12.97 14.98 12.18L14.98 12.18L14.98 12.18Q14.73 12.52 14.40 12.85L14.40 12.85L14.40 12.85Q14.08 13.19 13.73 13.45L13.73 13.45L13.73 13.45Q13.38 13.71 13.03 13.87L13.03 13.87L13.03 13.87Q12.69 14.03 12.40 14.03L12.40 14.03L12.40 14.03Q12.33 14.03 12.21 13.96L12.21 13.96L12.21 13.96Q12.09 13.88 11.97 13.77L11.97 13.77L11.97 13.77Q11.85 13.65 11.76 13.49L11.76 13.49L11.76 13.49Q11.68 13.34 11.68 13.16L11.68 13.16L11.68 13.16Q11.68 12.93 11.79 12.62L11.79 12.62L11.79 12.62Q11.89 12.30 12.10 11.94L12.10 11.94L12.10 11.94Q12.31 11.59 12.61 11.22L12.61 11.22L12.61 11.22Q12.91 10.85 13.28 10.52L13.28 10.52L13.28 10.52Q13.65 10.20 14.09 9.94L14.09 9.94L14.09 9.94Q14.53 9.69 15.03 9.55L15.03 9.55L15.03 9.55Q15.11 9.55 15.24 9.61L15.24 9.61L15.24 9.61Q15.38 9.67 15.51 9.74L15.51 9.74L15.51 9.74Q15.65 9.81 15.75 9.88L15.75 9.88L15.75 9.88Q15.85 9.95 15.85 9.97L15.85 9.97L15.85 9.97Q15.85 9.98 15.83 10.00L15.83 10.00L15.83 10.00Q15.81 10.01 15.80 10.01L15.80 10.01L15.80 10.01Q15.65 10.10 15.40 10.27L15.40 10.27L15.40 10.27Q15.16 10.45 14.88 10.66L14.88 10.66L14.88 10.66Q14.61 10.88 14.33 11.12L14.33 11.12L14.33 11.12Q14.06 11.37 13.84 11.61L13.84 11.61L13.84 11.61Q13.62 11.85 13.48 12.08L13.48 12.08L13.48 12.08Q13.34 12.30 13.34 12.48L13.34 12.48L13.34 12.48Q13.34 12.54 13.37 12.58L13.37 12.58L13.37 12.58Q13.41 12.63 13.47 12.63L13.47 12.63L13.47 12.63Q13.64 12.63 13.85 12.51L13.85 12.51L13.85 12.51Q14.07 12.39 14.29 12.20L14.29 12.20L14.29 12.20Q14.52 12.00 14.75 11.77L14.75 11.77L14.75 11.77Q14.97 11.53 15.17 11.30L15.17 11.30L15.17 11.30Q15.37 11.07 15.53 10.88L15.53 10.88L15.53 10.88Q15.69 10.68 15.78 10.55L15.78 10.55L15.78 10.55Q15.79 10.54 15.80 10.53L15.80 10.53L15.80 10.53Q15.81 10.51 15.83 10.50L15.83 10.50L15.83 10.50Q15.89 10.51 15.98 10.64L15.98 10.64L15.98 10.64Q16.07 10.76 16.16 10.92L16.16 10.92L16.16 10.92Q16.25 11.08 16.31 11.24L16.31 11.24L16.31 11.24Q16.38 11.40 16.38 11.46L16.38 11.46L16.38 11.48L16.38 11.48Q16.38 11.48 16.37 11.53L16.37 11.53L16.37 11.53Q16.29 11.76 16.17 12.20L16.17 12.20L16.17 12.20Q16.06 12.63 15.88 13.19L15.88 13.19L15.88 13.19Q16.32 12.84 16.76 12.46L16.76 12.46L16.76 12.46Q17.20 12.07 17.64 11.63L17.64 11.63ZM11.84 17.58L11.84 17.58L11.84 17.58Q11.98 17.58 12.23 17.37L12.23 17.37L12.23 17.37Q12.49 17.17 12.78 16.84L12.78 16.84L12.78 16.84Q13.06 16.52 13.34 16.12L13.34 16.12L13.34 16.12Q13.62 15.73 13.80 15.36L13.80 15.36L13.80 15.36Q13.36 15.68 12.99 15.97L12.99 15.97L12.99 15.97Q12.62 16.25 12.36 16.52L12.36 16.52L12.36 16.52Q12.09 16.78 11.95 17.03L11.95 17.03L11.95 17.03Q11.80 17.28 11.80 17.53L11.80 17.53L11.80 17.53Q11.80 17.58 11.84 17.58ZM18.04 14.05L18.04 14.05L18.04 14.05Q17.94 14.05 17.78 13.98L17.78 13.98L17.78 13.98Q17.62 13.91 17.48 13.81L17.48 13.81L17.48 13.81Q17.34 13.70 17.23 13.57L17.23 13.57L17.23 13.57Q17.13 13.44 17.13 13.32L17.13 13.32L17.13 13.32Q17.20 13.02 17.32 12.63L17.32 12.63L17.32 12.63Q17.43 12.24 17.56 11.83L17.56 11.83L17.56 11.83Q17.70 11.43 17.85 11.04L17.85 11.04L17.85 11.04Q17.99 10.66 18.11 10.36L18.11 10.36L18.11 10.36Q18.23 10.06 18.32 9.87L18.32 9.87L18.32 9.87Q18.41 9.69 18.44 9.69L18.44 9.69L18.44 9.69Q18.48 9.69 18.64 9.78L18.64 9.78L18.64 9.78Q18.81 9.86 18.99 9.99L18.99 9.99L18.99 9.99Q19.17 10.12 19.31 10.26L19.31 10.26L19.31 10.26Q19.46 10.40 19.46 10.50L19.46 10.50L19.46 10.50Q19.46 10.52 19.45 10.55L19.45 10.55L19.45 10.55Q19.44 10.58 19.43 10.63L19.43 10.63L19.43 10.63Q19.37 10.80 19.29 11.03L19.29 11.03L19.29 11.03Q19.20 11.27 19.11 11.52L19.11 11.52L19.11 11.52Q19.01 11.76 18.92 12.01L18.92 12.01L18.92 12.01Q18.82 12.26 18.74 12.48L18.74 12.48L18.74 12.48Q18.67 12.70 18.62 12.87L18.62 12.87L18.62 12.87Q18.57 13.03 18.57 13.10L18.57 13.10L18.57 13.10Q18.57 13.15 18.61 13.15L18.61 13.15L18.61 13.15Q18.69 13.15 18.84 13.06L18.84 13.06L18.84 13.06Q18.99 12.97 19.19 12.82L19.19 12.82L19.19 12.82Q19.38 12.68 19.59 12.51L19.59 12.51L19.59 12.51Q19.80 12.34 20.00 12.17L20.00 12.17L20.00 12.17Q20.19 12.00 20.35 11.87L20.35 11.87L20.35 11.87Q20.51 11.73 20.59 11.66L20.59 11.66L20.59 11.66Q20.65 11.72 20.74 11.82L20.74 11.82L20.74 11.82Q20.82 11.92 20.90 12.00L20.90 12.00L20.90 12.00Q20.75 12.15 20.52 12.36L20.52 12.36L20.52 12.36Q20.30 12.58 20.03 12.80L20.03 12.80L20.03 12.80Q19.77 13.03 19.49 13.25L19.49 13.25L19.49 13.25Q19.20 13.48 18.94 13.66L18.94 13.66L18.94 13.66Q18.67 13.84 18.44 13.95L18.44 13.95L18.44 13.95Q18.20 14.05 18.04 14.05ZM20.75 7.60L20.75 7.60L20.75 7.60Q20.74 7.63 20.70 7.73L20.70 7.73L20.70 7.73Q20.65 7.84 20.59 7.98L20.59 7.98L20.59 7.98Q20.53 8.12 20.45 8.27L20.45 8.27L20.45 8.27Q20.37 8.43 20.30 8.56L20.30 8.56L20.30 8.56Q20.22 8.69 20.15 8.77L20.15 8.77L20.15 8.77Q20.08 8.86 20.04 8.86L20.04 8.86L20.04 8.86Q19.92 8.85 19.75 8.78L19.75 8.78L19.75 8.78Q19.57 8.72 19.41 8.63L19.41 8.63L19.41 8.63Q19.25 8.54 19.14 8.46L19.14 8.46L19.14 8.46Q19.02 8.38 19.02 8.35L19.02 8.35L19.02 8.35Q19.02 8.20 19.11 7.97L19.11 7.97L19.11 7.97Q19.19 7.75 19.30 7.53L19.30 7.53L19.30 7.53Q19.41 7.31 19.52 7.16L19.52 7.16L19.52 7.16Q19.63 7 19.69 7L19.69 7L19.69 7Q19.82 7 20.00 7.08L20.00 7.08L20.00 7.08Q20.17 7.16 20.34 7.26L20.34 7.26L20.34 7.26Q20.51 7.36 20.63 7.46L20.63 7.46L20.63 7.46Q20.75 7.56 20.75 7.60ZM21.19 14.05L21.19 14.05L21.19 14.05Q21.08 14.05 20.89 13.95L20.89 13.95L20.89 13.95Q20.70 13.84 20.52 13.69L20.52 13.69L20.52 13.69Q20.34 13.54 20.21 13.37L20.21 13.37L20.21 13.37Q20.08 13.21 20.08 13.09L20.08 13.09L20.08 13.09Q20.08 12.89 20.20 12.44L20.20 12.44L20.20 12.44Q20.31 12.00 20.49 11.43L20.49 11.43L20.49 11.43Q20.68 10.86 20.91 10.21L20.91 10.21L20.91 10.21Q21.15 9.56 21.39 8.93L21.39 8.93L20.43 8.93L20.42 8.93L20.42 8.93Q20.41 8.93 20.41 8.92L20.41 8.92L20.41 8.92Q20.41 8.88 20.44 8.80L20.44 8.80L20.44 8.80Q20.47 8.72 20.52 8.64L20.52 8.64L20.52 8.64Q20.56 8.55 20.62 8.48L20.62 8.48L20.62 8.48Q20.68 8.41 20.73 8.39L20.73 8.39L21.62 8.35L21.62 8.35Q21.81 7.88 21.99 7.49L21.99 7.49L21.99 7.49Q22.16 7.10 22.30 6.82L22.30 6.82L22.30 6.82Q22.33 6.74 22.37 6.65L22.37 6.65L22.37 6.65Q22.41 6.57 22.48 6.48L22.48 6.48L22.48 6.48Q22.55 6.40 22.67 6.31L22.67 6.31L22.67 6.31Q22.79 6.21 23.00 6.12L23.00 6.12L23.00 6.12Q23.15 6.04 23.36 5.95L23.36 5.95L23.36 5.95Q23.58 5.87 23.79 5.79L23.79 5.79L23.79 5.79Q23.99 5.71 24.17 5.66L24.17 5.66L24.17 5.66Q24.34 5.61 24.41 5.61L24.41 5.61L24.41 5.61Q24.48 5.61 24.48 5.64L24.48 5.64L24.48 5.65L24.48 5.65Q24.48 5.66 24.47 5.69L24.47 5.69L24.47 5.69Q24.42 5.76 24.32 5.98L24.32 5.98L24.32 5.98Q24.21 6.21 24.05 6.56L24.05 6.56L24.05 6.56Q23.88 6.90 23.69 7.35L23.69 7.35L23.69 7.35Q23.50 7.79 23.29 8.28L23.29 8.28L24.93 8.22L24.93 8.22Q25.00 8.22 24.97 8.30L24.97 8.30L24.97 8.30Q24.94 8.38 24.87 8.49L24.87 8.49L24.87 8.49Q24.79 8.60 24.69 8.72L24.69 8.72L24.69 8.72Q24.60 8.83 24.53 8.89L24.53 8.89L24.53 8.89Q24.51 8.91 24.47 8.92L24.47 8.92L24.47 8.92Q24.43 8.93 24.37 8.93L24.37 8.93L23.02 8.93L23.02 8.93Q22.77 9.53 22.54 10.14L22.54 10.14L22.54 10.14Q22.32 10.75 22.14 11.29L22.14 11.29L22.14 11.29Q21.96 11.84 21.86 12.30L21.86 12.30L21.86 12.30Q21.75 12.76 21.75 13.05L21.75 13.05L21.75 13.05Q21.75 13.09 21.79 13.09L21.79 13.09L21.79 13.09Q21.87 13.09 22.02 13.01L22.02 13.01L22.02 13.01Q22.17 12.92 22.36 12.78L22.36 12.78L22.36 12.78Q22.54 12.65 22.76 12.48L22.76 12.48L22.76 12.48Q22.97 12.32 23.16 12.16L23.16 12.16L23.16 12.16Q23.35 12.00 23.51 11.86L23.51 11.86L23.51 11.86Q23.66 11.73 23.74 11.66L23.74 11.66L23.74 11.66Q23.80 11.72 23.89 11.82L23.89 11.82L23.89 11.82Q23.97 11.92 24.05 12.00L24.05 12.00L24.05 12.00Q23.90 12.15 23.67 12.36L23.67 12.36L23.67 12.36Q23.45 12.58 23.18 12.80L23.18 12.80L23.18 12.80Q22.92 13.03 22.64 13.25L22.64 13.25L22.64 13.25Q22.35 13.48 22.08 13.66L22.08 13.66L22.08 13.66Q21.81 13.84 21.58 13.95L21.58 13.95L21.58 13.95Q21.35 14.05 21.19 14.05ZM24.55 12.98L24.55 12.98L24.55 12.98Q24.55 13.19 24.71 13.19L24.71 13.19L24.71 13.19Q24.86 13.19 25.12 12.94L25.12 12.94L25.12 12.94Q25.38 12.69 25.66 12.30L25.66 12.30L25.66 12.30Q25.65 12.23 25.65 12.17L25.65 12.17L25.65 12.17Q25.64 12.11 25.64 12.07L25.64 12.07L25.64 12.07Q25.64 11.93 25.67 11.74L25.67 11.74L25.67 11.74Q25.70 11.55 25.83 11.31L25.83 11.31L25.83 11.31Q25.91 11.13 26.02 10.95L26.02 10.95L26.02 10.95Q26.12 10.79 26.26 10.61L26.26 10.61L26.26 10.61Q26.39 10.43 26.56 10.27L26.56 10.27L26.60 10.23L26.60 10.23Q26.67 10.32 26.78 10.46L26.78 10.46L26.78 10.46Q26.89 10.60 27.01 10.74L27.01 10.74L27.01 10.74Q27.12 10.89 27.20 11.01L27.20 11.01L27.20 11.01Q27.29 11.14 27.31 11.18L27.31 11.18L27.31 11.18Q27.31 11.48 27.20 11.77L27.20 11.77L27.20 11.77Q27.10 12.07 26.92 12.35L26.92 12.35L26.92 12.35Q27.33 12.33 27.68 12.14L27.68 12.14L27.68 12.14Q28.03 11.96 28.42 11.55L28.42 11.55L28.42 11.55Q28.48 11.61 28.58 11.72L28.58 11.72L28.58 11.72Q28.68 11.83 28.74 11.90L28.74 11.90L28.74 11.90Q28.45 12.20 28.17 12.40L28.17 12.40L28.17 12.40Q27.90 12.60 27.62 12.71L27.62 12.71L27.62 12.71Q27.34 12.83 27.06 12.88L27.06 12.88L27.06 12.88Q26.77 12.93 26.47 12.93L26.47 12.93L26.47 12.93Q26.24 13.18 25.97 13.38L25.97 13.38L25.97 13.38Q25.70 13.59 25.43 13.74L25.43 13.74L25.43 13.74Q25.15 13.89 24.88 13.97L24.88 13.97L24.88 13.97Q24.60 14.05 24.36 14.05L24.36 14.05L24.36 14.05Q24.15 14.05 23.93 13.93L23.93 13.93L23.93 13.93Q23.71 13.81 23.54 13.63L23.54 13.63L23.54 13.63Q23.36 13.45 23.24 13.24L23.24 13.24L23.24 13.24Q23.13 13.04 23.13 12.88L23.13 12.88L23.13 12.88Q23.13 12.36 23.27 11.85L23.27 11.85L23.27 11.85Q23.41 11.33 23.70 10.89L23.70 10.89L23.70 10.89Q24.00 10.44 24.46 10.10L24.46 10.10L24.46 10.10Q24.92 9.75 25.56 9.58L25.56 9.58L25.56 9.58Q25.58 9.56 25.63 9.56L25.63 9.56L25.63 9.56Q25.68 9.55 25.72 9.55L25.72 9.55L25.72 9.55Q25.81 9.55 25.92 9.62L25.92 9.62L25.92 9.62Q26.02 9.69 26.12 9.78L26.12 9.78L26.12 9.78Q26.21 9.87 26.27 9.96L26.27 9.96L26.27 9.96Q26.33 10.04 26.33 10.07L26.33 10.07L26.33 10.07Q26.32 10.10 26.23 10.15L26.23 10.15L26.23 10.15Q26.14 10.21 25.99 10.33L25.99 10.33L25.99 10.33Q25.84 10.45 25.63 10.68L25.63 10.68L25.63 10.68Q25.43 10.91 25.18 11.29L25.18 11.29L25.18 11.29Q24.81 11.84 24.68 12.29L24.68 12.29L24.68 12.29Q24.55 12.74 24.55 12.98ZM38.62 4.03L38.62 4.03L38.62 4.03Q38.21 5.17 37.85 6.34L37.85 6.34L37.85 6.34Q37.49 7.51 37.21 8.84L37.21 8.84L37.21 8.84Q36.94 10.17 36.78 11.71L36.78 11.71L36.78 11.71Q36.61 13.25 36.61 15.12L36.61 15.12L36.61 15.12Q36.52 15.18 36.36 15.27L36.36 15.27L36.36 15.27Q36.20 15.36 36.01 15.47L36.01 15.47L36.01 15.47Q35.81 15.57 35.60 15.68L35.60 15.68L35.60 15.68Q35.39 15.79 35.19 15.89L35.19 15.89L35.19 15.89Q35 16.00 34.84 16.08L34.84 16.08L34.84 16.08Q34.69 16.16 34.60 16.20L34.60 16.20L34.60 16.20Q34.61 15.69 34.67 15.07L34.67 15.07L34.67 15.07Q34.73 14.46 34.84 13.78L34.84 13.78L34.84 13.78Q34.95 13.10 35.09 12.37L35.09 12.37L35.09 12.37Q35.23 11.63 35.39 10.89L35.39 10.89L35.39 10.89Q34.90 11.55 34.45 11.99L34.45 11.99L34.45 11.99Q34.00 12.43 33.65 12.70L33.65 12.70L33.65 12.70Q33.25 13.02 32.90 13.20L32.90 13.20L32.90 13.20Q32.76 13.28 32.55 13.21L32.55 13.21L32.55 13.21Q32.35 13.15 32.15 13.01L32.15 13.01L32.15 13.01Q31.94 12.87 31.78 12.71L31.78 12.71L31.78 12.71Q31.61 12.54 31.54 12.43L31.54 12.43L31.54 12.43Q31.47 12.33 31.39 11.81L31.39 11.81L31.39 11.81Q31.32 11.30 31.28 10.34L31.28 10.34L31.28 10.34Q30.99 10.73 30.65 11.15L30.65 11.15L30.65 11.15Q30.30 11.57 29.95 11.99L29.95 11.99L29.95 11.99Q29.60 12.41 29.26 12.81L29.26 12.81L29.26 12.81Q28.92 13.20 28.62 13.52L28.62 13.52L28.62 13.52Q28.32 13.85 28.09 14.09L28.09 14.09L28.09 14.09Q27.85 14.32 27.72 14.42L27.72 14.42L27.72 14.42Q27.65 14.35 27.55 14.25L27.55 14.25L27.55 14.25Q27.45 14.16 27.35 14.05L27.35 14.05L27.35 14.05Q27.24 13.95 27.14 13.84L27.14 13.84L27.14 13.84Q27.04 13.73 26.96 13.64L26.96 13.64L26.96 13.64Q27.96 12.76 28.98 11.17L28.98 11.17L28.98 11.17Q30.01 9.57 30.94 7.32L30.94 7.32L30.94 7.32Q31.04 7.41 31.13 7.49L31.13 7.49L31.13 7.49Q31.22 7.57 31.30 7.66L31.30 7.66L31.30 7.66Q31.36 6.58 31.47 5.26L31.47 5.26L31.47 5.26Q31.58 3.94 31.79 2.34L31.79 2.34L31.79 2.34Q31.83 2.35 31.95 2.47L31.95 2.47L31.95 2.47Q32.08 2.58 32.25 2.76L32.25 2.76L32.25 2.76Q32.42 2.93 32.61 3.13L32.61 3.13L32.61 3.13Q32.81 3.34 32.98 3.52L32.98 3.52L32.98 3.52Q33.15 3.71 33.28 3.85L33.28 3.85L33.28 3.85Q33.41 3.99 33.46 4.05L33.46 4.05L33.46 4.05Q33.45 4.10 33.40 4.34L33.40 4.34L33.40 4.34Q33.35 4.58 33.29 4.96L33.29 4.96L33.29 4.96Q33.22 5.33 33.15 5.82L33.15 5.82L33.15 5.82Q33.07 6.30 33.01 6.85L33.01 6.85L33.01 6.85Q32.95 7.39 32.90 7.97L32.90 7.97L32.90 7.97Q32.86 8.54 32.85 9.10L32.85 9.10L32.85 9.10Q32.85 9.33 32.84 9.64L32.84 9.64L32.84 9.64Q32.84 9.94 32.84 10.26L32.84 10.26L32.84 10.26Q32.84 10.58 32.85 10.89L32.85 10.89L32.85 10.89Q32.86 11.20 32.88 11.45L32.88 11.45L32.88 11.45Q32.90 11.70 32.94 11.86L32.94 11.86L32.94 11.86Q32.98 12.02 33.04 12.04L33.04 12.04L33.04 12.04Q33.11 12.06 33.40 11.84L33.40 11.84L33.40 11.84Q33.69 11.62 34.09 11.20L34.09 11.20L34.09 11.20Q34.49 10.77 34.97 10.17L34.97 10.17L34.97 10.17Q35.44 9.56 35.89 8.81L35.89 8.81L35.89 8.81Q36.09 8.01 36.30 7.27L36.30 7.27L36.30 7.27Q36.51 6.52 36.71 5.89L36.71 5.89L36.71 5.89Q36.90 5.25 37.07 4.75L37.07 4.75L37.07 4.75Q37.24 4.25 37.38 3.92L37.38 3.92L37.38 3.92Q37.52 3.93 37.69 3.94L37.69 3.94L37.69 3.94Q37.86 3.95 38.04 3.97L38.04 3.97L38.04 3.97Q38.22 3.99 38.37 4.00L38.37 4.00L38.37 4.00Q38.53 4.02 38.62 4.03ZM41.87 13.08L41.87 13.08L41.87 13.08Q41.87 13.12 41.91 13.12L41.91 13.12L41.91 13.12Q41.99 13.12 42.14 13.03L42.14 13.03L42.14 13.03Q42.29 12.94 42.49 12.80L42.49 12.80L42.49 12.80Q42.69 12.67 42.91 12.50L42.91 12.50L42.91 12.50Q43.13 12.33 43.33 12.16L43.33 12.16L43.33 12.16Q43.52 12.00 43.69 11.87L43.69 11.87L43.69 11.87Q43.85 11.73 43.93 11.66L43.93 11.66L43.93 11.66Q43.99 11.72 44.07 11.82L44.07 11.82L44.07 11.82Q44.16 11.92 44.24 12.00L44.24 12.00L44.24 12.00Q44.08 12.15 43.86 12.36L43.86 12.36L43.86 12.36Q43.63 12.57 43.36 12.80L43.36 12.80L43.36 12.80Q43.09 13.03 42.80 13.25L42.80 13.25L42.80 13.25Q42.51 13.47 42.23 13.65L42.23 13.65L42.23 13.65Q41.96 13.82 41.72 13.93L41.72 13.93L41.72 13.93Q41.48 14.04 41.32 14.04L41.32 14.04L41.32 14.04Q41.21 14.04 41.06 13.97L41.06 13.97L41.06 13.97Q40.92 13.90 40.79 13.78L40.79 13.78L40.79 13.78Q40.67 13.67 40.58 13.54L40.58 13.54L40.58 13.54Q40.50 13.40 40.50 13.28L40.50 13.28L40.50 13.28Q40.50 13.17 40.58 12.86L40.58 12.86L40.58 12.86Q40.66 12.55 40.78 12.14L40.78 12.14L40.78 12.14Q40.47 12.56 40.17 12.88L40.17 12.88L40.17 12.88Q39.88 13.19 39.63 13.42L39.63 13.42L39.63 13.42Q39.39 13.64 39.20 13.78L39.20 13.78L39.20 13.78Q39.02 13.92 38.93 13.99L38.93 13.99L38.93 13.99Q38.88 14.02 38.80 14.04L38.80 14.04L38.80 14.04Q38.73 14.05 38.66 14.05L38.66 14.05L38.66 14.05Q38.53 14.05 38.38 13.98L38.38 13.98L38.38 13.98Q38.22 13.90 38.09 13.78L38.09 13.78L38.09 13.78Q37.95 13.67 37.86 13.52L37.86 13.52L37.86 13.52Q37.77 13.38 37.77 13.25L37.77 13.25L37.77 13.25Q37.77 13.10 37.87 12.75L37.87 12.75L37.87 12.75Q37.97 12.40 38.13 11.92L38.13 11.92L38.13 11.92Q38.30 11.43 38.53 10.83L38.53 10.83L38.53 10.83Q38.75 10.23 39.01 9.56L39.01 9.56L39.01 9.56Q39.03 9.53 39.04 9.53L39.04 9.53L39.04 9.53Q39.05 9.54 39.07 9.54L39.07 9.54L39.07 9.54Q39.20 9.56 39.43 9.64L39.43 9.64L39.43 9.64Q39.66 9.73 39.87 9.83L39.87 9.83L39.87 9.83Q40.09 9.93 40.24 10.02L40.24 10.02L40.24 10.02Q40.40 10.12 40.40 10.15L40.40 10.15L40.40 10.15Q40.38 10.20 40.29 10.38L40.29 10.38L40.29 10.38Q40.21 10.55 40.10 10.80L40.10 10.80L40.10 10.80Q39.98 11.05 39.86 11.34L39.86 11.34L39.86 11.34Q39.73 11.63 39.62 11.90L39.62 11.90L39.62 11.90Q39.52 12.17 39.45 12.38L39.45 12.38L39.45 12.38Q39.38 12.60 39.38 12.70L39.38 12.70L39.38 12.70Q39.38 12.73 39.41 12.73L39.41 12.73L39.41 12.73Q39.46 12.73 39.65 12.58L39.65 12.58L39.65 12.58Q39.83 12.43 40.10 12.12L40.10 12.12L40.10 12.12Q40.37 11.81 40.71 11.31L40.71 11.31L40.71 11.31Q41.06 10.81 41.43 10.12L41.43 10.12L41.62 9.58L41.62 9.58Q41.64 9.52 41.71 9.52L41.71 9.52L41.71 9.52Q41.75 9.52 41.91 9.61L41.91 9.61L41.91 9.61Q42.08 9.71 42.26 9.83L42.26 9.83L42.26 9.83Q42.44 9.95 42.58 10.07L42.58 10.07L42.58 10.07Q42.72 10.19 42.74 10.23L42.74 10.23L42.74 10.23Q42.74 10.25 42.73 10.31L42.73 10.31L42.73 10.31Q42.72 10.36 42.71 10.39L42.71 10.39L42.71 10.39Q42.64 10.58 42.55 10.82L42.55 10.82L42.55 10.82Q42.46 11.07 42.37 11.34L42.37 11.34L42.37 11.34Q42.28 11.61 42.19 11.89L42.19 11.89L42.19 11.89Q42.10 12.16 42.03 12.40L42.03 12.40L42.03 12.40Q41.96 12.63 41.91 12.81L41.91 12.81L41.91 12.81Q41.87 13.00 41.87 13.08ZM47.11 12.97L47.11 12.97L47.11 12.97Q46.82 12.97 46.61 12.87L46.61 12.87L46.61 12.87Q46.38 13.11 46.14 13.32L46.14 13.32L46.14 13.32Q45.89 13.53 45.65 13.69L45.65 13.69L45.65 13.69Q45.41 13.85 45.18 13.95L45.18 13.95L45.18 13.95Q44.95 14.04 44.74 14.05L44.74 14.05L44.74 14.05Q44.64 14.05 44.44 13.97L44.44 13.97L44.44 13.97Q44.25 13.88 44.06 13.74L44.06 13.74L44.06 13.74Q43.87 13.60 43.73 13.42L43.73 13.42L43.73 13.42Q43.59 13.23 43.59 13.05L43.59 13.05L43.59 13.05Q43.59 12.60 43.68 12.14L43.68 12.14L43.68 12.14Q43.77 11.69 43.90 11.25L43.90 11.25L43.90 11.25Q44.04 10.80 44.20 10.37L44.20 10.37L44.20 10.37Q44.36 9.95 44.50 9.55L44.50 9.55L44.50 9.55Q44.85 9.71 45.18 9.90L45.18 9.90L45.18 9.90Q45.51 10.09 45.80 10.35L45.80 10.35L45.80 10.35Q45.70 10.55 45.60 10.82L45.60 10.82L45.60 10.82Q45.49 11.09 45.40 11.38L45.40 11.38L45.40 11.38Q45.30 11.66 45.22 11.95L45.22 11.95L45.22 11.95Q45.14 12.24 45.08 12.48L45.08 12.48L45.08 12.48Q45.01 12.73 44.98 12.92L44.98 12.92L44.98 12.92Q44.95 13.10 44.95 13.19L44.95 13.19L44.95 13.19Q44.95 13.24 44.97 13.29L44.97 13.29L44.97 13.29Q44.99 13.33 45.05 13.33L45.05 13.33L45.05 13.33Q45.16 13.33 45.29 13.26L45.29 13.26L45.29 13.26Q45.42 13.19 45.58 13.08L45.58 13.08L45.58 13.08Q45.73 12.97 45.88 12.81L45.88 12.81L45.88 12.81Q46.03 12.66 46.18 12.49L46.18 12.49L46.18 12.49Q46.05 12.28 46.05 12.07L46.05 12.07L46.05 12.07Q46.05 11.92 46.10 11.72L46.10 11.72L46.10 11.72Q46.14 11.52 46.22 11.30L46.22 11.30L46.22 11.30Q46.29 11.08 46.39 10.86L46.39 10.86L46.39 10.86Q46.48 10.64 46.58 10.45L46.58 10.45L46.58 10.45Q46.68 10.25 46.77 10.11L46.77 10.11L46.77 10.11Q46.86 9.97 46.94 9.90L46.94 9.90L46.94 9.90Q47.09 9.96 47.26 10.07L47.26 10.07L47.26 10.07Q47.43 10.17 47.58 10.29L47.58 10.29L47.58 10.29Q47.72 10.41 47.81 10.52L47.81 10.52L47.81 10.52Q47.91 10.64 47.92 10.71L47.92 10.71L47.92 10.71Q47.92 10.86 47.85 11.05L47.85 11.05L47.85 11.05Q47.78 11.24 47.66 11.46L47.66 11.46L47.66 11.46Q47.54 11.68 47.38 11.93L47.38 11.93L47.38 11.93Q47.21 12.17 47.01 12.41L47.01 12.41L47.01 12.41Q47.05 12.43 47.10 12.44L47.10 12.44L47.10 12.44Q47.14 12.45 47.20 12.45L47.20 12.45L47.20 12.45Q47.48 12.45 47.69 12.39L47.69 12.39L47.69 12.39Q47.90 12.34 48.09 12.23L48.09 12.23L48.09 12.23Q48.28 12.13 48.47 11.97L48.47 11.97L48.47 11.97Q48.65 11.81 48.87 11.61L48.87 11.61L48.87 11.61Q48.93 11.67 49.03 11.77L49.03 11.77L49.03 11.77Q49.13 11.87 49.19 11.94L49.19 11.94L49.19 11.94Q48.90 12.23 48.65 12.42L48.65 12.42L48.65 12.42Q48.39 12.62 48.14 12.74L48.14 12.74L48.14 12.74Q47.89 12.86 47.64 12.91L47.64 12.91L47.64 12.91Q47.39 12.97 47.11 12.97Z"></path></g><!----><!----></svg>